<?xml version="1.0" standalone="no"?>
<!DOCTYPE svg PUBLIC "-//W3C//DTD SVG 20010904//EN"
 "http://www.w3.org/TR/2001/REC-SVG-20010904/DTD/svg10.dtd">
<svg version="1.0" xmlns="http://www.w3.org/2000/svg"
 width="677.000000pt" height="677.000000pt" viewBox="0 0 677.000000 677.000000"
 preserveAspectRatio="xMidYMid meet">
<metadata>
Created by potrace 1.11, written by Peter Selinger 2001-2013
</metadata>
<g transform="translate(0.000000,677.000000) scale(0.100000,-0.100000)"
fill="#000000" stroke="none">
<path d="M3407 6708 c161 -223 291 -481 382 -757 28 -83 76 -268 86 -326 41
-240 49 -328 49 -555 0 -168 -3 -216 -20 -360 -9 -79 -53 -292 -79 -385 -14
-49 -27 -97 -29 -105 -26 -94 -119 -317 -186 -444 l-42 -80 12 -95 c7 -53 14
-105 16 -116 2 -11 6 -36 9 -55 33 -252 153 -678 278 -983 l24 -58 45 48 c83
87 108 117 192 228 142 190 261 397 341 590 20 50 41 99 46 110 8 19 60 177
79 240 24 82 66 293 76 385 3 30 10 80 14 110 8 53 5 519 -3 570 -3 14 -8 48
-11 75 -24 177 -116 535 -166 640 -5 11 -23 54 -40 95 -39 93 -169 344 -181
348 -5 2 -9 8 -9 14 0 21 -173 259 -270 372 -77 90 -300 304 -375 359 -5 4
-28 21 -50 38 -51 40 -212 149 -220 149 -3 0 11 -24 32 -52z"/>
<path d="M1969 6718 c0 -13 -2 -32 -3 -43 -11 -86 -18 -142 -21 -155 -2 -9 -6
-41 -9 -71 -3 -30 -8 -64 -10 -76 -3 -12 -7 -48 -11 -80 -3 -32 -8 -69 -10
-83 -4 -29 -16 -124 -21 -160 -1 -14 -7 -61 -13 -105 -6 -44 -14 -100 -17
-125 -3 -25 -7 -56 -10 -70 -2 -14 -6 -50 -10 -80 -7 -69 -12 -102 -16 -104
-206 -96 -307 -168 -438 -312 -106 -117 -217 -330 -245 -469 -30 -151 -33
-189 -29 -375 4 -194 7 -241 18 -355 6 -56 10 -88 22 -175 57 -411 178 -833
351 -1220 81 -180 282 -549 305 -558 4 -2 8 -8 8 -13 0 -16 177 -270 193 -277
4 -2 7 -8 7 -13 0 -10 93 -128 184 -234 142 -164 344 -364 490 -486 16 -13 34
-29 40 -35 6 -5 58 -47 116 -93 58 -45 113 -89 123 -96 9 -8 20 -15 23 -15 6
0 63 -40 81 -57 11 -10 166 -110 223 -143 115 -69 167 -97 295 -161 169 -84
246 -119 263 -119 7 0 12 -4 12 -10 0 -5 6 -10 14 -10 8 0 45 -13 82 -29 257
-108 704 -227 1003 -267 19 -2 46 -6 60 -8 30 -5 123 -17 178 -22 21 -2 133
-6 248 -10 l210 -6 -120 72 c-107 65 -322 206 -335 220 -3 3 -32 25 -65 50
-33 24 -65 49 -72 55 -7 5 -18 15 -25 20 -14 11 -114 94 -162 135 -87 73 -214
197 -321 312 -119 127 -131 141 -240 279 -58 74 -110 140 -115 146 -34 41
-217 326 -272 423 -76 133 -179 340 -227 455 -18 44 -37 89 -42 100 -43 100
-148 415 -175 524 -9 39 -46 198 -49 216 -23 107 -34 161 -40 210 -3 22 -8 51
-10 65 -3 14 -7 43 -10 65 -2 22 -7 60 -10 85 -27 210 -36 571 -20 800 12 177
10 392 -5 480 -59 347 -297 662 -615 815 -100 48 -242 93 -320 101 -27 3 -53
9 -57 12 -7 7 -69 196 -323 985 -36 112 -54 143 -56 95z"/>
<path d="M1120 2700 c0 -14 -4 -72 -7 -130 -14 -203 -7 -635 12 -755 2 -16 7
-55 9 -85 3 -30 7 -66 10 -80 2 -14 7 -45 10 -70 3 -25 8 -56 11 -70 3 -14 7
-40 10 -59 2 -18 7 -41 9 -50 3 -9 7 -27 10 -41 15 -92 105 -438 125 -485 5
-11 21 -56 36 -100 69 -205 247 -599 329 -730 l25 -40 2 45 c1 47 2 55 14 180
7 73 48 365 60 425 3 17 17 80 31 140 14 61 27 119 30 130 6 31 89 303 111
365 l19 55 -103 122 c-57 67 -103 125 -103 128 0 5 -24 35 -46 59 -26 27 -195
280 -258 386 -93 155 -204 369 -269 521 -30 70 -60 135 -66 145 -9 17 -10 17
-11 -6z"/>
</g>
</svg>
