<?xml version="1.0" encoding="UTF-8" standalone="no"?>
<svg
   xmlns:dc="http://purl.org/dc/elements/1.1/"
   xmlns:cc="http://creativecommons.org/ns#"
   xmlns:rdf="http://www.w3.org/1999/02/22-rdf-syntax-ns#"
   xmlns:svg="http://www.w3.org/2000/svg"
   xmlns="http://www.w3.org/2000/svg"
   xmlns:xlink="http://www.w3.org/1999/xlink"
   xmlns:sodipodi="http://sodipodi.sourceforge.net/DTD/sodipodi-0.dtd"
   xmlns:inkscape="http://www.inkscape.org/namespaces/inkscape"
   width="93.849625mm"
   height="16.582081mm"
   viewBox="0 0 93.849625 16.582081"
   version="1.1"
   id="svg1006"
   inkscape:version="1.0 (4035a4fb49, 2020-05-01)"
   sodipodi:docname="blackname.svg">
  <defs
     id="defs1000">
    <linearGradient
       inkscape:collect="always"
       xlink:href="#linearGradient5326"
       id="linearGradient5334"
       x1="39.43462"
       y1="5.46697"
       x2="154.03514"
       y2="216.60445"
       gradientUnits="userSpaceOnUse"
       gradientTransform="matrix(0.07853689,0,0,0.07853689,22.134984,36.026913)" />
    <linearGradient
       inkscape:collect="always"
       id="linearGradient5326">
      <stop
         style="stop-color:#947bd3;stop-opacity:1"
         offset="0"
         id="stop5322" />
      <stop
         id="stop5336"
         offset="0.51844591"
         style="stop-color:#f26ca7;stop-opacity:1" />
      <stop
         style="stop-color:#f26ca7;stop-opacity:1"
         offset="1"
         id="stop5324" />
    </linearGradient>
    <linearGradient
       inkscape:collect="always"
       xlink:href="#linearGradient5316"
       id="linearGradient5320"
       x1="84.169891"
       y1="6.6001964"
       x2="30.867004"
       y2="214.80072"
       gradientUnits="userSpaceOnUse"
       gradientTransform="matrix(0.07853689,0,0,0.07853689,22.134984,36.026913)" />
    <linearGradient
       inkscape:collect="always"
       id="linearGradient5316">
      <stop
         style="stop-color:#947bd3;stop-opacity:1"
         offset="0"
         id="stop5312" />
      <stop
         style="stop-color:#5e4ae3;stop-opacity:1"
         offset="1"
         id="stop5314" />
    </linearGradient>
  </defs>
  <sodipodi:namedview
     id="base"
     pagecolor="#ffffff"
     bordercolor="#666666"
     borderopacity="1.0"
     inkscape:pageopacity="0.0"
     inkscape:pageshadow="2"
     inkscape:zoom="7.9195959"
     inkscape:cx="132.99827"
     inkscape:cy="34.10298"
     inkscape:document-units="mm"
     inkscape:current-layer="text835-9-0"
     inkscape:document-rotation="0"
     showgrid="false"
     fit-margin-top="0"
     fit-margin-left="0"
     fit-margin-right="0"
     fit-margin-bottom="0"
     inkscape:window-width="1452"
     inkscape:window-height="1080"
     inkscape:window-x="327"
     inkscape:window-y="0"
     inkscape:window-maximized="0" />
  <metadata
     id="metadata1003">
    <rdf:RDF>
      <cc:Work
         rdf:about="">
        <dc:format>image/svg+xml</dc:format>
        <dc:type
           rdf:resource="http://purl.org/dc/dcmitype/StillImage" />
        <dc:title />
      </cc:Work>
    </rdf:RDF>
  </metadata>
  <g
     inkscape:label="Calque 1"
     inkscape:groupmode="layer"
     id="layer1"
     transform="translate(-23.098975,-36.45628)">
    <path
       inkscape:export-ydpi="96"
       inkscape:export-xdpi="96"
       inkscape:export-filename="D:\Projects\Kolumbao\old\kolumbao.github.io\img\logo\blackname.png"
       inkscape:connector-curvature="0"
       style="fill:url(#linearGradient5334);fill-opacity:1;stroke-width:0.0277061"
       d="m 33.513863,53.019543 c -0.07619,-0.0049 -0.325345,-0.02823 -0.553678,-0.05195 -2.700169,-0.280543 -5.284698,-1.618684 -7.087484,-3.66955 -1.538189,-1.749859 -2.461261,-3.839836 -2.7227,-6.1646 -0.06512,-0.579076 -0.06749,-1.48411 -0.0046,-1.752202 0.202601,-0.863421 0.759534,-1.562278 1.533728,-1.924567 0.09711,-0.04544 0.177264,-0.09704 0.178111,-0.114648 9.11e-4,-0.01761 0.08552,-0.674109 0.188168,-1.458883 l 0.186625,-1.426863 0.164957,0.512562 c 0.09072,0.281909 0.289689,0.897776 0.442145,1.368593 l 0.277189,0.856031 0.263209,0.05292 c 1.011506,0.203374 1.822482,0.949757 2.122752,1.953677 0.08827,0.295117 0.108738,0.727075 0.07456,1.573202 -0.04235,1.048368 0.02518,1.945528 0.215231,2.859428 0.621064,2.98646 2.481613,5.611599 5.104312,7.201922 l 0.336012,0.203745 -0.290013,-0.005 c -0.159508,-0.0027 -0.352351,-0.009 -0.428544,-0.01383 z"
       id="path4715-7" />
    <path
       inkscape:export-ydpi="96"
       inkscape:export-xdpi="96"
       inkscape:export-filename="D:\Projects\Kolumbao\old\kolumbao.github.io\img\logo\blackname.png"
       id="path4703-3"
       style="fill:url(#linearGradient5320);fill-opacity:1;stroke-width:0.0277061"
       d="m 29.821353,46.769858 c -0.314312,-0.830754 -0.508785,-1.587654 -0.630722,-2.454822 l -0.04813,-0.342233 0.114394,-0.214695 c 0.155359,-0.291576 0.395948,-0.898075 0.499376,-1.258883 0.1867,-0.651282 0.262771,-1.220353 0.261512,-1.956307 -0.0023,-1.373989 -0.37807,-2.640466 -1.117318,-3.766278 -0.09292,-0.141511 -0.164251,-0.261988 -0.158513,-0.267726 0.02144,-0.02144 0.471164,0.306578 0.760028,0.554353 1.329831,1.140664 2.149434,2.664035 2.378938,4.421659 0.0649,0.497026 0.04352,1.51294 -0.04191,1.99128 -0.235787,1.320247 -0.79455,2.473324 -1.690676,3.488922 -0.08339,0.09451 -0.159827,0.171835 -0.169857,0.171835 -0.01004,0 -0.08074,-0.165198 -0.15713,-0.367105 z m -5.514059,5.749006 c -0.643747,-1.264388 -1.013413,-2.523641 -1.173235,-3.996598 -0.03915,-0.36083 -0.04818,-1.66052 -0.01355,-1.951029 l 0.02285,-0.191697 0.108911,0.260961 c 0.411852,0.986832 1.022011,1.979899 1.74685,2.843094 l 0.213981,0.254821 -0.107174,0.319004 c -0.276219,0.82219 -0.527103,2.125307 -0.527232,2.738505 -1.7e-5,0.08762 -0.0111,0.159309 -0.02463,0.159309 -0.01353,0 -0.124573,-0.196366 -0.246768,-0.43637 z"
       inkscape:connector-curvature="0" />
    <g
       style="font-style:normal;font-variant:normal;font-weight:bold;font-stretch:normal;font-size:16.3645px;line-height:1.35;font-family:Inter;-inkscape-font-specification:'Inter Bold';fill:#000000;fill-opacity:1;stroke:none;stroke-width:0.219167"
       id="text835-9-0"
       aria-label="Kolumbao">
      <path
         id="path843"
         style="font-style:normal;font-variant:normal;font-weight:bold;font-stretch:normal;font-size:16.3645px;font-family:Inter;-inkscape-font-specification:'Inter Bold';fill:#000000;stroke-width:0.219167"
         d="M 38.476287,50.607971 V 38.706517 h 2.516274 v 5.247565 h 0.156904 l 4.282897,-5.247565 h 3.016042 l -4.416555,5.328922 4.468856,6.572532 h -3.010231 l -3.260115,-4.893078 -1.237798,1.510927 v 3.382151 z" />
      <path
         id="path845"
         style="font-style:normal;font-variant:normal;font-weight:bold;font-stretch:normal;font-size:16.3645px;font-family:Inter;-inkscape-font-specification:'Inter Bold';fill:#000000;stroke-width:0.219167"
         d="m 53.106126,50.782309 q -1.354022,0 -2.341936,-0.575315 -0.982103,-0.581125 -1.516738,-1.615529 -0.534636,-1.040215 -0.534636,-2.411672 0,-1.383079 0.534636,-2.417483 0.534635,-1.040215 1.516738,-1.615529 0.987914,-0.581126 2.341936,-0.581126 1.354023,0 2.336126,0.581126 0.987914,0.575314 1.522549,1.615529 0.534636,1.034404 0.534636,2.417483 0,1.371457 -0.534636,2.411672 -0.534635,1.034404 -1.522549,1.615529 -0.982103,0.575315 -2.336126,0.575315 z m 0.01162,-1.917715 q 0.615993,0 1.028592,-0.348675 0.4126,-0.354487 0.621805,-0.964669 0.215017,-0.610182 0.215017,-1.388891 0,-0.778708 -0.215017,-1.38889 -0.209205,-0.610182 -0.621805,-0.964669 -0.412599,-0.354486 -1.028592,-0.354486 -0.621805,0 -1.046026,0.354486 -0.418411,0.354487 -0.633427,0.964669 -0.209206,0.610182 -0.209206,1.38889 0,0.778709 0.209206,1.388891 0.215016,0.610182 0.633427,0.964669 0.424221,0.348675 1.046026,0.348675 z" />
      <path
         id="path847"
         style="font-style:normal;font-variant:normal;font-weight:bold;font-stretch:normal;font-size:16.3645px;font-family:Inter;-inkscape-font-specification:'Inter Bold';fill:#000000;stroke-width:0.219167"
         d="M 61.584752,38.706517 V 50.607971 H 59.109156 V 38.706517 Z" />
      <path
         id="path849"
         style="font-style:normal;font-variant:normal;font-weight:bold;font-stretch:normal;font-size:16.3645px;font-family:Inter;-inkscape-font-specification:'Inter Bold';fill:#000000;stroke-width:0.219167"
         d="M 69.27595,46.807409 V 41.68188 h 2.475595 v 8.926091 H 69.374741 V 48.98663 h -0.09298 q -0.302185,0.78452 -1.005348,1.261043 -0.69735,0.476523 -1.702698,0.476523 -0.894934,0 -1.574851,-0.406788 -0.679917,-0.406788 -1.06346,-1.15644 -0.377731,-0.749652 -0.383543,-1.795678 v -5.68341 h 2.475596 v 5.241754 q 0.0058,0.790331 0.424222,1.24942 0.41841,0.45909 1.121572,0.45909 0.447467,0 0.836821,-0.203394 0.389355,-0.209205 0.627616,-0.615993 0.244073,-0.406788 0.238262,-1.005348 z" />
      <path
         id="path851"
         style="font-style:normal;font-variant:normal;font-weight:bold;font-stretch:normal;font-size:16.3645px;font-family:Inter;-inkscape-font-specification:'Inter Bold';fill:#000000;stroke-width:0.219167"
         d="M 73.71575,50.607971 V 41.68188 h 2.359371 v 1.574851 h 0.104602 q 0.278941,-0.78452 0.929801,-1.237798 0.650861,-0.453278 1.557417,-0.453278 0.918179,0 1.563229,0.459089 0.645049,0.453278 0.860066,1.231987 h 0.09298 q 0.273129,-0.767086 0.987913,-1.226175 0.720596,-0.464901 1.702699,-0.464901 1.24942,0 2.028128,0.796142 0.78452,0.790331 0.78452,2.243146 v 6.003028 h -2.469784 v -5.514883 q 0,-0.743841 -0.395166,-1.115761 -0.395165,-0.371921 -0.987913,-0.371921 -0.674106,0 -1.051838,0.430033 -0.377732,0.424222 -0.377732,1.121573 v 5.450959 h -2.400049 v -5.567184 q 0,-0.656672 -0.377731,-1.046026 -0.371921,-0.389355 -0.982103,-0.389355 -0.412599,0 -0.743841,0.209206 -0.32543,0.203394 -0.517202,0.575314 -0.191771,0.366109 -0.191771,0.860066 v 5.357979 z" />
      <path
         id="path853"
         style="font-style:normal;font-variant:normal;font-weight:bold;font-stretch:normal;font-size:16.3645px;font-family:Inter;-inkscape-font-specification:'Inter Bold';fill:#000000;stroke-width:0.219167"
         d="M 88.688453,50.607971 V 38.706517 h 2.475595 v 4.474668 h 0.07555 q 0.162715,-0.360298 0.470711,-0.732219 0.313808,-0.377732 0.813576,-0.627616 0.50558,-0.255695 1.255232,-0.255695 0.976291,0 1.80149,0.511391 0.825198,0.505579 1.319155,1.52836 0.493957,1.01697 0.493957,2.551142 0,1.493493 -0.482334,2.522086 -0.476524,1.022781 -1.301722,1.551605 -0.819387,0.523014 -1.836357,0.523014 -0.720596,0 -1.226176,-0.238262 -0.499768,-0.238261 -0.819387,-0.598559 -0.319619,-0.36611 -0.488145,-0.73803 h -0.110414 v 1.429569 z m 2.423294,-4.463045 q 0,0.796142 0.220828,1.38889 0.220827,0.592748 0.639238,0.92399 0.41841,0.32543 1.01697,0.32543 0.604371,0 1.022781,-0.331241 0.418411,-0.337053 0.633427,-0.929801 0.220828,-0.59856 0.220828,-1.377268 0,-0.772897 -0.215017,-1.359834 -0.215016,-0.586937 -0.633427,-0.918179 -0.41841,-0.331242 -1.028592,-0.331242 -0.604371,0 -1.022781,0.319619 -0.4126,0.31962 -0.633427,0.906557 -0.220828,0.586936 -0.220828,1.383079 z" />
      <path
         id="path855"
         style="font-style:normal;font-variant:normal;font-weight:bold;font-stretch:normal;font-size:16.3645px;font-family:Inter;-inkscape-font-specification:'Inter Bold';fill:#000000;stroke-width:0.219167"
         d="m 101.57492,50.776498 q -0.85426,0 -1.52255,-0.296374 -0.668298,-0.302186 -1.057652,-0.889123 -0.383543,-0.592748 -0.383543,-1.476059 0,-0.743841 0.273129,-1.24942 0.273129,-0.50558 0.743841,-0.813576 0.470715,-0.307997 1.069275,-0.464901 0.60437,-0.156904 1.26685,-0.220828 0.77871,-0.08136 1.25523,-0.151092 0.47652,-0.07555 0.69154,-0.220828 0.21502,-0.145282 0.21502,-0.430033 v -0.03487 q 0,-0.552069 -0.34868,-0.854255 -0.34286,-0.302185 -0.97629,-0.302185 -0.66829,0 -1.06346,0.296374 -0.39516,0.290563 -0.52301,0.732219 l -2.289637,-0.185961 q 0.174338,-0.813576 0.685728,-1.406324 0.511389,-0.598559 1.319159,-0.918178 0.81357,-0.325431 1.88284,-0.325431 0.74384,0 1.42376,0.174338 0.68573,0.174338 1.21455,0.540447 0.53464,0.366109 0.84264,0.941423 0.30799,0.569504 0.30799,1.365646 v 6.020462 h -2.34774 v -1.237798 h -0.0697 q -0.21502,0.418411 -0.57531,0.73803 -0.3603,0.313808 -0.86588,0.493957 -0.50558,0.174338 -1.16806,0.174338 z m 0.70897,-1.70851 q 0.54626,0 0.96467,-0.215016 0.41841,-0.220828 0.65667,-0.592749 0.23826,-0.37192 0.23826,-0.842632 v -0.947235 q -0.11622,0.07555 -0.31962,0.13947 -0.19758,0.05811 -0.44746,0.110414 -0.24989,0.04649 -0.49977,0.08717 -0.24989,0.03487 -0.45328,0.06392 -0.43584,0.06392 -0.76128,0.203394 -0.32543,0.13947 -0.50557,0.377732 -0.18015,0.23245 -0.18015,0.581125 0,0.50558 0.36611,0.772897 0.37192,0.261507 0.94142,0.261507 z" />
      <path
         id="path857"
         style="font-style:normal;font-variant:normal;font-weight:bold;font-stretch:normal;font-size:16.3645px;font-family:Inter;-inkscape-font-specification:'Inter Bold';fill:#000000;stroke-width:0.219167"
         d="m 112.55529,50.782309 q -1.35403,0 -2.34194,-0.575315 -0.9821,-0.581125 -1.51674,-1.615529 -0.53464,-1.040215 -0.53464,-2.411672 0,-1.383079 0.53464,-2.417483 0.53464,-1.040215 1.51674,-1.615529 0.98791,-0.581126 2.34194,-0.581126 1.35402,0 2.33612,0.581126 0.98791,0.575314 1.52255,1.615529 0.53464,1.034404 0.53464,2.417483 0,1.371457 -0.53464,2.411672 -0.53464,1.034404 -1.52255,1.615529 -0.9821,0.575315 -2.33612,0.575315 z m 0.0116,-1.917715 q 0.61599,0 1.02859,-0.348675 0.4126,-0.354487 0.6218,-0.964669 0.21502,-0.610182 0.21502,-1.388891 0,-0.778708 -0.21502,-1.38889 -0.2092,-0.610182 -0.6218,-0.964669 -0.4126,-0.354486 -1.02859,-0.354486 -0.62181,0 -1.04603,0.354486 -0.41841,0.354487 -0.63343,0.964669 -0.2092,0.610182 -0.2092,1.38889 0,0.778709 0.2092,1.388891 0.21502,0.610182 0.63343,0.964669 0.42422,0.348675 1.04603,0.348675 z" />
    </g>
  </g>
</svg>
