<?xml version="1.0" encoding="UTF-8" standalone="no"?>
<svg
   xmlns:dc="http://purl.org/dc/elements/1.1/"
   xmlns:cc="http://creativecommons.org/ns#"
   xmlns:rdf="http://www.w3.org/1999/02/22-rdf-syntax-ns#"
   xmlns:svg="http://www.w3.org/2000/svg"
   xmlns="http://www.w3.org/2000/svg"
   xmlns:xlink="http://www.w3.org/1999/xlink"
   xmlns:sodipodi="http://sodipodi.sourceforge.net/DTD/sodipodi-0.dtd"
   xmlns:inkscape="http://www.inkscape.org/namespaces/inkscape"
   width="180.7281mm"
   height="29.337152mm"
   viewBox="0 0 180.7281 29.337153"
   version="1.1"
   id="svg1006"
   inkscape:version="1.0 (4035a4fb49, 2020-05-01)"
   sodipodi:docname="coloursguide.svg">
  <defs
     id="defs1000">
    <linearGradient
       gradientTransform="translate(-0.23064789,-52.73833)"
       gradientUnits="userSpaceOnUse"
       y2="92.417587"
       x2="189.48807"
       y1="92.417587"
       x1="77.551643"
       id="linearGradient990"
       xlink:href="#linearGradient5326"
       inkscape:collect="always" />
    <linearGradient
       inkscape:collect="always"
       id="linearGradient5326">
      <stop
         style="stop-color:#947bd3;stop-opacity:1"
         offset="0"
         id="stop5322" />
      <stop
         id="stop5336"
         offset="0.51844591"
         style="stop-color:#f26ca7;stop-opacity:1" />
      <stop
         style="stop-color:#f26ca7;stop-opacity:1"
         offset="1"
         id="stop5324" />
    </linearGradient>
    <linearGradient
       gradientTransform="translate(0,10.583333)"
       gradientUnits="userSpaceOnUse"
       y2="92.417587"
       x2="189.48807"
       y1="92.417587"
       x1="77.551643"
       id="linearGradient1726"
       xlink:href="#linearGradient5326"
       inkscape:collect="always" />
    <linearGradient
       gradientTransform="translate(-0.23064789,-42.154997)"
       y2="92.417587"
       x2="189.48807"
       y1="92.417587"
       x1="77.551643"
       gradientUnits="userSpaceOnUse"
       id="linearGradient996"
       xlink:href="#linearGradient5316"
       inkscape:collect="always" />
    <linearGradient
       inkscape:collect="always"
       id="linearGradient5316">
      <stop
         style="stop-color:#947bd3;stop-opacity:1"
         offset="0"
         id="stop5312" />
      <stop
         style="stop-color:#5e4ae3;stop-opacity:1"
         offset="1"
         id="stop5314" />
    </linearGradient>
    <linearGradient
       gradientTransform="translate(0,21.166667)"
       y2="92.417587"
       x2="189.48807"
       y1="92.417587"
       x1="77.551643"
       gradientUnits="userSpaceOnUse"
       id="linearGradient1740"
       xlink:href="#linearGradient5316"
       inkscape:collect="always" />
  </defs>
  <sodipodi:namedview
     id="base"
     pagecolor="#ffffff"
     bordercolor="#666666"
     borderopacity="1.0"
     inkscape:pageopacity="0.0"
     inkscape:pageshadow="2"
     inkscape:zoom="1.4"
     inkscape:cx="168.64172"
     inkscape:cy="43.211411"
     inkscape:document-units="mm"
     inkscape:current-layer="layer1"
     inkscape:document-rotation="0"
     showgrid="false"
     fit-margin-top="0"
     fit-margin-left="0"
     fit-margin-right="0"
     fit-margin-bottom="0"
     inkscape:window-width="1452"
     inkscape:window-height="1080"
     inkscape:window-x="327"
     inkscape:window-y="0"
     inkscape:window-maximized="0" />
  <metadata
     id="metadata1003">
    <rdf:RDF>
      <cc:Work
         rdf:about="">
        <dc:format>image/svg+xml</dc:format>
        <dc:type
           rdf:resource="http://purl.org/dc/dcmitype/StillImage" />
        <dc:title />
      </cc:Work>
    </rdf:RDF>
  </metadata>
  <g
     inkscape:label="Calque 1"
     inkscape:groupmode="layer"
     id="layer1"
     transform="translate(-8.5293229,-35.594009)">
    <g
       style="font-size:10.5833px;line-height:1.25;font-family:Inter;-inkscape-font-specification:Inter;fill:#947bd3;fill-opacity:1;stroke-width:0.264583"
       id="text926"
       aria-label="#947bd3ff">
      <path
         id="path967"
         style="font-style:normal;font-variant:normal;font-weight:bold;font-stretch:normal;font-family:Inter;-inkscape-font-specification:'Inter Bold';fill:#947bd3;fill-opacity:1;stroke-width:0.264583"
         d="m 11.97566,43.651749 1.26278,-7.696946 h 1.202648 l -1.26278,7.696946 z M 8.5293229,41.742545 8.7285114,40.539898 H 14.74175 l -0.199189,1.202647 z m 0.7403799,1.909204 1.2627802,-7.696946 h 1.202648 l -1.26278,7.696946 z M 8.9690409,39.066654 9.1719877,37.864007 h 6.0132383 l -0.202947,1.202647 z" />
      <path
         id="path969"
         style="font-style:normal;font-variant:normal;font-weight:bold;font-stretch:normal;font-family:Inter;-inkscape-font-specification:'Inter Bold';fill:#947bd3;fill-opacity:1;stroke-width:0.264583"
         d="m 18.712366,35.827022 q 0.593808,0 1.142516,0.199189 0.552466,0.19543 0.984667,0.635148 0.43596,0.439718 0.687765,1.165065 0.255562,0.721589 0.25932,1.777664 -0.0038,0.980909 -0.225496,1.751355 -0.21798,0.766688 -0.627632,1.304121 -0.409652,0.537434 -0.988426,0.819304 -0.575016,0.278112 -1.289088,0.278112 -0.770446,0 -1.360495,-0.296903 -0.590049,-0.300662 -0.950843,-0.815546 -0.357036,-0.518642 -0.432202,-1.165065 h 1.604783 q 0.09396,0.420927 0.394619,0.65394 0.300662,0.229255 0.744138,0.229255 0.751655,0 1.142515,-0.65394 0.390861,-0.657698 0.394619,-1.800213 h -0.05262 q -0.17288,0.338244 -0.466026,0.582532 -0.293145,0.24053 -0.672731,0.372069 -0.375827,0.13154 -0.800512,0.13154 -0.680248,0 -1.217681,-0.319453 -0.533675,-0.319454 -0.841853,-0.879436 -0.308179,-0.563742 -0.30442,-1.28533 -0.0038,-0.781721 0.357036,-1.386803 0.360794,-0.608841 1.007217,-0.954602 0.650182,-0.345761 1.510826,-0.342003 z m 0.01128,1.277813 q -0.379586,0 -0.676489,0.180397 -0.293146,0.180398 -0.466026,0.488576 -0.169123,0.308179 -0.165364,0.691523 -0.0038,0.383343 0.161606,0.687764 0.169122,0.30442 0.462267,0.484817 0.293146,0.176639 0.668973,0.176639 0.281871,0 0.518642,-0.105232 0.240529,-0.105231 0.417168,-0.289387 0.180397,-0.187914 0.281871,-0.432201 0.101473,-0.248046 0.105231,-0.529917 -0.0038,-0.372069 -0.17288,-0.680248 -0.169122,-0.308178 -0.466026,-0.488575 -0.296904,-0.184156 -0.668973,-0.184156 z" />
      <path
         id="path971"
         style="font-style:normal;font-variant:normal;font-weight:bold;font-stretch:normal;font-family:Inter;-inkscape-font-specification:'Inter Bold';fill:#947bd3;fill-opacity:1;stroke-width:0.264583"
         d="m 22.79761,42.29877 v -1.281571 l 3.213324,-5.062396 h 1.104933 v 1.773906 h -0.65394 l -2.025709,3.205808 v 0.06013 h 4.566303 v 1.304121 z m 3.694384,1.352979 V 41.90791 l 0.03007,-0.5675 v -5.385607 h 1.525859 v 7.696946 z" />
      <path
         id="path973"
         style="font-style:normal;font-variant:normal;font-weight:bold;font-stretch:normal;font-family:Inter;-inkscape-font-specification:'Inter Bold';fill:#947bd3;fill-opacity:1;stroke-width:0.264583"
         d="m 30.391202,43.651749 3.190775,-6.313901 v -0.05262 h -3.716933 v -1.330429 h 5.40064 v 1.349221 l -3.194533,6.347725 z" />
      <path
         id="path975"
         style="font-style:normal;font-variant:normal;font-weight:bold;font-stretch:normal;font-family:Inter;-inkscape-font-specification:'Inter Bold';fill:#947bd3;fill-opacity:1;stroke-width:0.264583"
         d="m 36.436386,43.651749 v -7.696946 h 1.601025 v 2.893871 h 0.04886 q 0.105232,-0.233013 0.30442,-0.473542 0.202947,-0.244288 0.526159,-0.405894 0.32697,-0.165364 0.811787,-0.165364 0.63139,0 1.165065,0.330728 0.533675,0.32697 0.853128,0.988426 0.319453,0.657698 0.319453,1.649883 0,0.965876 -0.311936,1.631091 -0.308179,0.661456 -0.841854,1.003459 -0.529916,0.338245 -1.187614,0.338245 -0.466026,0 -0.792996,-0.15409 -0.323212,-0.154089 -0.529917,-0.387102 -0.206705,-0.236771 -0.315695,-0.477301 h -0.07141 v 0.924536 z m 1.5672,-2.886355 q 0,0.514884 0.142815,0.898228 0.142814,0.383344 0.41341,0.597565 0.270595,0.210464 0.657698,0.210464 0.39086,0 0.661456,-0.214222 0.270596,-0.21798 0.409652,-0.601324 0.142814,-0.387102 0.142814,-0.890711 0,-0.49985 -0.139056,-0.879436 -0.139056,-0.379586 -0.409652,-0.593807 -0.270596,-0.214222 -0.665214,-0.214222 -0.390861,0 -0.661457,0.206705 -0.266837,0.206705 -0.409651,0.586291 -0.142815,0.379586 -0.142815,0.894469 z" />
      <path
         id="path977"
         style="font-style:normal;font-variant:normal;font-weight:bold;font-stretch:normal;font-family:Inter;-inkscape-font-specification:'Inter Bold';fill:#947bd3;fill-opacity:1;stroke-width:0.264583"
         d="m 45.251417,43.745706 q -0.657698,0 -1.191372,-0.338245 -0.529917,-0.342003 -0.841854,-1.003459 -0.308178,-0.665215 -0.308178,-1.631091 0,-0.992185 0.319453,-1.649883 0.319453,-0.661456 0.84937,-0.988426 0.533675,-0.330728 1.168823,-0.330728 0.484817,0 0.808029,0.165364 0.32697,0.161606 0.526158,0.405894 0.202947,0.240529 0.308179,0.473542 h 0.04886 v -2.893871 h 1.597267 v 7.696946 h -1.578475 v -0.924536 h -0.06765 q -0.112748,0.24053 -0.319453,0.477301 -0.202947,0.233013 -0.529917,0.387102 -0.323212,0.15409 -0.789238,0.15409 z m 0.507367,-1.274055 q 0.387103,0 0.65394,-0.210464 0.270596,-0.214221 0.41341,-0.597565 0.146573,-0.383344 0.146573,-0.898228 0,-0.514883 -0.142815,-0.894469 -0.142814,-0.379586 -0.41341,-0.586291 -0.270595,-0.206705 -0.657698,-0.206705 -0.394618,0 -0.665214,0.214222 -0.270596,0.214221 -0.409652,0.593807 -0.139056,0.379586 -0.139056,0.879436 0,0.503609 0.139056,0.890711 0.142814,0.383344 0.409652,0.601324 0.270596,0.214222 0.665214,0.214222 z" />
      <path
         id="path979"
         style="font-style:normal;font-variant:normal;font-weight:bold;font-stretch:normal;font-family:Inter;-inkscape-font-specification:'Inter Bold';fill:#947bd3;fill-opacity:1;stroke-width:0.264583"
         d="m 52.672129,43.75698 q -0.841853,0 -1.499551,-0.289387 -0.65394,-0.293145 -1.033525,-0.80427 -0.375828,-0.514884 -0.387103,-1.187615 h 1.638608 q 0.01503,0.281871 0.184155,0.496092 0.172881,0.210464 0.45851,0.32697 0.285628,0.116507 0.642664,0.116507 0.37207,0 0.657698,-0.13154 0.285629,-0.13154 0.447235,-0.364553 0.161606,-0.233013 0.161606,-0.537433 0,-0.308178 -0.172881,-0.54495 -0.169122,-0.240529 -0.488575,-0.375827 -0.315695,-0.135298 -0.751655,-0.135298 h -0.717831 v -1.195131 h 0.717831 q 0.368311,0 0.650181,-0.127781 0.285629,-0.127782 0.443477,-0.353278 0.157847,-0.229255 0.157847,-0.533675 0,-0.289387 -0.139056,-0.507367 -0.135298,-0.221738 -0.383344,-0.345761 -0.244288,-0.124023 -0.571258,-0.124023 -0.330728,0 -0.605082,0.120265 -0.274354,0.116506 -0.439718,0.334486 -0.165364,0.21798 -0.176639,0.511125 H 49.90604 q 0.01127,-0.665214 0.379585,-1.172581 0.368311,-0.507367 0.992185,-0.792996 0.627631,-0.289387 1.416869,-0.289387 0.796754,0 1.39432,0.289387 0.597565,0.289387 0.928293,0.781721 0.334487,0.488576 0.330728,1.097416 0.0038,0.646423 -0.402135,1.078625 -0.402135,0.432201 -1.048558,0.548708 v 0.06013 q 0.849369,0.10899 1.292846,0.590049 0.447234,0.477301 0.443476,1.195131 0.0038,0.657698 -0.379586,1.168823 -0.379585,0.511126 -1.048558,0.804271 -0.668973,0.293145 -1.533376,0.293145 z" />
      <path
         id="path981"
         style="font-style:normal;font-variant:normal;font-weight:bold;font-stretch:normal;font-family:Inter;-inkscape-font-specification:'Inter Bold';fill:#947bd3;fill-opacity:1;stroke-width:0.264583"
         d="m 59.933117,37.87904 v 1.202647 H 56.370273 V 37.87904 Z m -2.747299,5.772709 v -6.189878 q 0,-0.627631 0.244288,-1.041042 0.248046,-0.41341 0.676489,-0.620115 0.428444,-0.206705 0.973393,-0.206705 0.368311,0 0.672731,0.05637 0.308179,0.05637 0.45851,0.101474 L 59.9256,36.954504 q -0.09396,-0.03007 -0.233013,-0.05637 -0.135298,-0.02631 -0.278112,-0.02631 -0.353278,0 -0.492334,0.165364 -0.139056,0.161606 -0.139056,0.454752 v 6.159811 z" />
      <path
         id="path983"
         style="font-style:normal;font-variant:normal;font-weight:bold;font-stretch:normal;font-family:Inter;-inkscape-font-specification:'Inter Bold';fill:#947bd3;fill-opacity:1;stroke-width:0.264583"
         d="m 64.005207,37.87904 v 1.202647 H 60.442363 V 37.87904 Z m -2.747299,5.772709 v -6.189878 q 0,-0.627631 0.244288,-1.041042 0.248046,-0.41341 0.67649,-0.620115 0.428443,-0.206705 0.973392,-0.206705 0.368311,0 0.672732,0.05637 0.308178,0.05637 0.458509,0.101474 l -0.285629,1.202647 q -0.09396,-0.03007 -0.233013,-0.05637 -0.135298,-0.02631 -0.278112,-0.02631 -0.353278,0 -0.492334,0.165364 -0.139056,0.161606 -0.139056,0.454752 v 6.159811 z" />
    </g>
    <g
       style="font-size:10.5833px;line-height:1.25;font-family:Inter;-inkscape-font-specification:Inter;fill:#f26ca7;fill-opacity:1;stroke-width:0.264583"
       id="text938"
       aria-label="#f26ca7ff">
      <path
         id="path948"
         style="font-style:normal;font-variant:normal;font-weight:bold;font-stretch:normal;font-family:Inter;-inkscape-font-specification:'Inter Bold';fill:#f26ca7;fill-opacity:1;stroke-width:0.264583"
         d="m 11.97566,54.235085 1.26278,-7.696946 h 1.202648 l -1.26278,7.696946 z M 8.5293229,52.325881 8.7285114,51.123234 H 14.74175 l -0.199189,1.202647 z m 0.7403799,1.909204 1.2627802,-7.696946 h 1.202648 l -1.26278,7.696946 z M 8.9690409,49.64999 9.1719877,48.447343 h 6.0132383 l -0.202947,1.202647 z" />
      <path
         id="path950"
         style="font-style:normal;font-variant:normal;font-weight:bold;font-stretch:normal;font-family:Inter;-inkscape-font-specification:'Inter Bold';fill:#f26ca7;fill-opacity:1;stroke-width:0.264583"
         d="m 19.046853,48.462376 v 1.202647 h -3.562844 v -1.202647 z m -2.747299,5.772709 v -6.189878 q 0,-0.627632 0.244288,-1.041042 0.248046,-0.41341 0.67649,-0.620115 0.428443,-0.206705 0.973392,-0.206705 0.368311,0 0.672732,0.05637 0.308178,0.05637 0.458509,0.101474 l -0.285629,1.202647 q -0.09396,-0.03007 -0.233013,-0.05637 -0.135298,-0.02631 -0.278112,-0.02631 -0.353278,0 -0.492334,0.165364 -0.139056,0.161606 -0.139056,0.454751 v 6.159812 z" />
      <path
         id="path952"
         style="font-style:normal;font-variant:normal;font-weight:bold;font-stretch:normal;font-family:Inter;-inkscape-font-specification:'Inter Bold';fill:#f26ca7;fill-opacity:1;stroke-width:0.264583"
         d="m 19.999574,54.235085 v -1.172582 l 2.739782,-2.536835 q 0.34952,-0.338245 0.586291,-0.60884 0.240529,-0.270596 0.364553,-0.529917 0.124023,-0.263079 0.124023,-0.567499 0,-0.338245 -0.15409,-0.582533 -0.154089,-0.248046 -0.420926,-0.379585 -0.266838,-0.135298 -0.605082,-0.135298 -0.353278,0 -0.616357,0.142814 -0.26308,0.142814 -0.405894,0.409652 -0.142814,0.266837 -0.142814,0.635148 h -1.544651 q 0,-0.755413 0.342003,-1.311637 0.342003,-0.556225 0.95836,-0.860645 0.616357,-0.30442 1.420627,-0.30442 0.826821,0 1.439419,0.293145 0.616357,0.289387 0.95836,0.804271 0.342003,0.514883 0.342003,1.180098 0,0.43596 -0.17288,0.860644 -0.169123,0.424685 -0.605083,0.943327 -0.435959,0.514884 -1.228955,1.236472 l -1.123724,1.101175 v 0.05262 h 3.232116 v 1.330429 z" />
      <path
         id="path954"
         style="font-style:normal;font-variant:normal;font-weight:bold;font-stretch:normal;font-family:Inter;-inkscape-font-specification:'Inter Bold';fill:#f26ca7;fill-opacity:1;stroke-width:0.264583"
         d="m 29.630153,54.340316 q -0.593808,-0.0038 -1.146274,-0.199188 -0.548708,-0.195431 -0.984668,-0.635149 -0.432201,-0.439718 -0.687764,-1.165065 -0.251804,-0.725346 -0.255563,-1.781421 0.0038,-0.977152 0.221739,-1.747598 0.221738,-0.770446 0.63139,-1.304121 0.41341,-0.537433 0.988426,-0.815545 0.575016,-0.281871 1.289088,-0.281871 0.770446,0 1.360495,0.300662 0.590049,0.300662 0.947085,0.815545 0.360794,0.514884 0.43596,1.161307 h -1.604783 q -0.09396,-0.420927 -0.394619,-0.650181 -0.300662,-0.233013 -0.744138,-0.233013 -0.751655,0 -1.142516,0.657698 -0.387102,0.653939 -0.394618,1.796455 h 0.05261 q 0.172881,-0.342003 0.466026,-0.582533 0.296904,-0.244288 0.672731,-0.372069 0.379586,-0.13154 0.800513,-0.13154 0.684006,0 1.217681,0.323212 0.533674,0.319453 0.841853,0.879436 0.308178,0.559983 0.308178,1.281572 0,0.781721 -0.364552,1.390561 -0.360794,0.60884 -1.010976,0.954602 -0.646423,0.342002 -1.503309,0.338244 z m -0.0075,-1.277813 q 0.375827,0 0.672731,-0.180397 0.296904,-0.180397 0.466026,-0.488576 0.169122,-0.308178 0.169122,-0.691522 0,-0.383344 -0.169122,-0.687764 -0.165364,-0.30442 -0.458509,-0.484818 -0.293146,-0.180397 -0.668973,-0.180397 -0.281871,0 -0.5224,0.105232 -0.236772,0.105232 -0.417169,0.293145 -0.176639,0.187914 -0.278112,0.43596 -0.101473,0.244288 -0.101473,0.5224 0,0.372069 0.169122,0.680248 0.172881,0.308178 0.466026,0.492334 0.296904,0.184155 0.672731,0.184155 z" />
      <path
         id="path956"
         style="font-style:normal;font-variant:normal;font-weight:bold;font-stretch:normal;font-family:Inter;-inkscape-font-specification:'Inter Bold';fill:#f26ca7;fill-opacity:1;stroke-width:0.264583"
         d="m 36.286056,54.347833 q -0.886953,0 -1.525859,-0.375828 -0.635149,-0.379585 -0.977152,-1.052316 -0.338244,-0.672731 -0.338244,-1.548409 0,-0.886953 0.342003,-1.555926 0.345761,-0.672731 0.980909,-1.048558 0.635148,-0.379586 1.510826,-0.379586 0.755413,0 1.322913,0.274354 0.567499,0.274354 0.898227,0.770446 0.330728,0.496093 0.364553,1.165065 h -1.510826 q -0.06389,-0.432201 -0.338245,-0.69528 -0.270596,-0.266838 -0.710314,-0.266838 -0.372069,0 -0.650181,0.202947 -0.274354,0.199188 -0.428443,0.582532 -0.15409,0.383344 -0.15409,0.928294 0,0.552466 0.150331,0.939569 0.154089,0.387102 0.432202,0.590049 0.278112,0.202946 0.650181,0.202946 0.274354,0 0.492334,-0.112748 0.221738,-0.112748 0.364553,-0.32697 0.146572,-0.21798 0.191672,-0.5224 h 1.510826 q -0.03758,0.661456 -0.360795,1.165065 -0.319453,0.499851 -0.883194,0.781721 -0.563741,0.281871 -1.334187,0.281871 z" />
      <path
         id="path958"
         style="font-style:normal;font-variant:normal;font-weight:bold;font-stretch:normal;font-family:Inter;-inkscape-font-specification:'Inter Bold';fill:#f26ca7;fill-opacity:1;stroke-width:0.264583"
         d="m 41.54576,54.344074 q -0.552466,0 -0.984667,-0.191671 -0.432202,-0.195431 -0.684006,-0.575016 -0.248046,-0.383344 -0.248046,-0.954602 0,-0.481059 0.176639,-0.808029 0.176638,-0.32697 0.481059,-0.526158 0.30442,-0.199189 0.691522,-0.300662 0.390861,-0.101474 0.819304,-0.142815 0.503608,-0.05261 0.811787,-0.09772 0.308178,-0.04886 0.447235,-0.142814 0.139056,-0.09396 0.139056,-0.278112 v -0.02255 q 0,-0.357036 -0.225497,-0.552466 -0.221738,-0.195431 -0.63139,-0.195431 -0.432201,0 -0.687764,0.191672 -0.255563,0.187914 -0.338245,0.473543 l -1.48076,-0.120265 q 0.112749,-0.526158 0.443477,-0.909502 0.330728,-0.387102 0.853128,-0.593807 0.526158,-0.210464 1.217681,-0.210464 0.481059,0 0.920777,0.112748 0.443476,0.112749 0.785479,0.34952 0.345761,0.236771 0.54495,0.60884 0.199188,0.368311 0.199188,0.883195 v 3.893572 h -1.518342 v -0.800513 h -0.0451 q -0.139056,0.270596 -0.372069,0.477301 -0.233013,0.202947 -0.559983,0.319453 -0.326969,0.112748 -0.755413,0.112748 z m 0.45851,-1.104932 q 0.353278,0 0.623873,-0.139056 0.270596,-0.142815 0.424685,-0.383344 0.15409,-0.24053 0.15409,-0.54495 v -0.612599 q -0.07517,0.04886 -0.206706,0.0902 -0.127781,0.03758 -0.289387,0.07141 -0.161605,0.03007 -0.323211,0.05637 -0.161606,0.02255 -0.293146,0.04134 -0.28187,0.04134 -0.492333,0.13154 -0.210464,0.0902 -0.32697,0.244288 -0.116507,0.150331 -0.116507,0.375827 0,0.32697 0.236771,0.499851 0.24053,0.169122 0.608841,0.169122 z" />
      <path
         id="path960"
         style="font-style:normal;font-variant:normal;font-weight:bold;font-stretch:normal;font-family:Inter;-inkscape-font-specification:'Inter Bold';fill:#f26ca7;fill-opacity:1;stroke-width:0.264583"
         d="m 46.328165,54.235085 3.190774,-6.313901 v -0.05262 h -3.716933 v -1.330429 h 5.40064 v 1.349221 l -3.194533,6.347725 z" />
      <path
         id="path962"
         style="font-style:normal;font-variant:normal;font-weight:bold;font-stretch:normal;font-family:Inter;-inkscape-font-specification:'Inter Bold';fill:#f26ca7;fill-opacity:1;stroke-width:0.264583"
         d="m 55.447616,48.462376 v 1.202647 h -3.562844 v -1.202647 z m -2.747298,5.772709 v -6.189878 q 0,-0.627632 0.244288,-1.041042 0.248046,-0.41341 0.676489,-0.620115 0.428443,-0.206705 0.973393,-0.206705 0.368311,0 0.672731,0.05637 0.308179,0.05637 0.458509,0.101474 L 55.4401,47.53784 q -0.09396,-0.03007 -0.233013,-0.05637 -0.135298,-0.02631 -0.278113,-0.02631 -0.353277,0 -0.492334,0.165364 -0.139056,0.161606 -0.139056,0.454751 v 6.159812 z" />
      <path
         id="path964"
         style="font-style:normal;font-variant:normal;font-weight:bold;font-stretch:normal;font-family:Inter;-inkscape-font-specification:'Inter Bold';fill:#f26ca7;fill-opacity:1;stroke-width:0.264583"
         d="m 59.519706,48.462376 v 1.202647 h -3.562843 v -1.202647 z m -2.747298,5.772709 v -6.189878 q 0,-0.627632 0.244288,-1.041042 0.248046,-0.41341 0.676489,-0.620115 0.428443,-0.206705 0.973393,-0.206705 0.368311,0 0.672731,0.05637 0.308179,0.05637 0.45851,0.101474 L 59.51219,47.53784 q -0.09396,-0.03007 -0.233013,-0.05637 -0.135298,-0.02631 -0.278112,-0.02631 -0.353278,0 -0.492334,0.165364 -0.139057,0.161606 -0.139057,0.454751 v 6.159812 z" />
    </g>
    <g
       style="font-size:10.5833px;line-height:1.25;font-family:Inter;-inkscape-font-specification:Inter;fill:#5e4ae3;fill-opacity:1;stroke-width:0.264583"
       id="text942"
       aria-label="#5e4ae3ff">
      <path
         id="path929"
         style="font-style:normal;font-variant:normal;font-weight:bold;font-stretch:normal;font-family:Inter;-inkscape-font-specification:'Inter Bold';fill:#5e4ae3;fill-opacity:1;stroke-width:0.264583"
         d="m 11.97566,64.818413 1.26278,-7.696945 h 1.202648 l -1.26278,7.696945 z M 8.5293229,62.90921 8.7285114,61.706562 H 14.74175 l -0.199189,1.202648 z m 0.7403799,1.909203 1.2627802,-7.696945 h 1.202648 l -1.26278,7.696945 z M 8.9690409,60.233318 9.1719877,59.030671 h 6.0132383 l -0.202947,1.202647 z" />
      <path
         id="path931"
         style="font-style:normal;font-variant:normal;font-weight:bold;font-stretch:normal;font-family:Inter;-inkscape-font-specification:'Inter Bold';fill:#5e4ae3;fill-opacity:1;stroke-width:0.264583"
         d="m 18.738674,64.923644 q -0.796754,0 -1.420627,-0.293145 -0.620116,-0.293145 -0.984668,-0.808029 -0.364553,-0.514883 -0.379586,-1.180098 h 1.578475 q 0.02631,0.447235 0.375828,0.725347 0.349519,0.278112 0.830578,0.278112 0.383344,0 0.67649,-0.169122 0.296903,-0.172881 0.462267,-0.477301 0.169123,-0.308178 0.169123,-0.706555 0,-0.405894 -0.172881,-0.714072 -0.169122,-0.308179 -0.469784,-0.481059 -0.300662,-0.172881 -0.687764,-0.176639 -0.338245,0 -0.657698,0.139056 -0.315695,0.139056 -0.492334,0.379585 l -1.446936,-0.25932 0.364553,-4.058936 h 4.705359 v 1.330429 h -3.363655 l -0.199189,1.927994 h 0.0451 q 0.202947,-0.285629 0.612599,-0.473542 0.409652,-0.187914 0.917019,-0.187914 0.695281,0 1.24023,0.32697 0.54495,0.32697 0.860645,0.898227 0.315695,0.5675 0.311937,1.30788 0.0038,0.777962 -0.360794,1.383044 -0.360795,0.601324 -1.010976,0.947086 -0.646423,0.342002 -1.50331,0.342002 z" />
      <path
         id="path933"
         style="font-style:normal;font-variant:normal;font-weight:bold;font-stretch:normal;font-family:Inter;-inkscape-font-specification:'Inter Bold';fill:#5e4ae3;fill-opacity:1;stroke-width:0.264583"
         d="m 25.394577,64.931161 q -0.890711,0 -1.533376,-0.360794 -0.638906,-0.364553 -0.984667,-1.029767 -0.345762,-0.668973 -0.345762,-1.582234 0,-0.890711 0.345762,-1.563442 0.345761,-0.672731 0.973393,-1.048558 0.63139,-0.375828 1.48076,-0.375828 0.571257,0 1.063591,0.184156 0.496092,0.180397 0.864403,0.54495 0.372069,0.364552 0.578774,0.917018 0.206705,0.548708 0.206705,1.28533 v 0.439718 h -4.874481 v -0.992184 h 3.367414 q 0,-0.345761 -0.150331,-0.612599 -0.150331,-0.266837 -0.417169,-0.417168 -0.263079,-0.154089 -0.612598,-0.154089 -0.364553,0 -0.646424,0.169122 -0.278112,0.165364 -0.435959,0.447234 -0.157848,0.278113 -0.161606,0.620116 v 0.943326 q 0,0.428444 0.157847,0.74038 0.161606,0.311937 0.454752,0.48106 0.293145,0.169122 0.69528,0.169122 0.266838,0 0.488576,-0.07517 0.221738,-0.07516 0.379585,-0.225496 0.157848,-0.150331 0.24053,-0.368311 l 1.48076,0.09772 q -0.112748,0.533675 -0.462268,0.932052 -0.345761,0.394619 -0.894469,0.616357 -0.54495,0.21798 -1.259022,0.21798 z" />
      <path
         id="path935"
         style="font-style:normal;font-variant:normal;font-weight:bold;font-stretch:normal;font-family:Inter;-inkscape-font-specification:'Inter Bold';fill:#5e4ae3;fill-opacity:1;stroke-width:0.264583"
         d="m 28.95742,63.465434 v -1.281571 l 3.213324,-5.062395 h 1.104933 v 1.773905 h -0.65394 l -2.025709,3.205808 v 0.06013 h 4.566303 v 1.304121 z m 3.694384,1.352979 v -1.743839 l 0.03007,-0.5675 v -5.385606 h 1.525859 v 7.696945 z" />
      <path
         id="path937"
         style="font-style:normal;font-variant:normal;font-weight:bold;font-stretch:normal;font-family:Inter;-inkscape-font-specification:'Inter Bold';fill:#5e4ae3;fill-opacity:1;stroke-width:0.264583"
         d="m 37.90775,64.927403 q -0.552466,0 -0.984667,-0.191672 -0.432202,-0.19543 -0.684006,-0.575016 -0.248046,-0.383344 -0.248046,-0.954602 0,-0.481059 0.176638,-0.808029 0.176639,-0.32697 0.48106,-0.526158 0.30442,-0.199189 0.691522,-0.300662 0.39086,-0.101473 0.819304,-0.142814 0.503608,-0.05262 0.811787,-0.09772 0.308178,-0.04886 0.447235,-0.142814 0.139056,-0.09396 0.139056,-0.278112 v -0.02255 q 0,-0.357036 -0.225497,-0.552466 -0.221738,-0.19543 -0.63139,-0.19543 -0.432201,0 -0.687764,0.191672 -0.255563,0.187913 -0.338245,0.473542 l -1.48076,-0.120265 q 0.112749,-0.526158 0.443477,-0.909502 0.330728,-0.387102 0.853128,-0.593807 0.526158,-0.210464 1.217681,-0.210464 0.481059,0 0.920777,0.112749 0.443476,0.112748 0.785479,0.349519 0.345761,0.236771 0.54495,0.608841 0.199188,0.36831 0.199188,0.883194 v 3.893572 H 39.640315 V 64.0179 h -0.0451 q -0.139056,0.270596 -0.372069,0.477301 -0.233013,0.202947 -0.559983,0.319454 -0.326969,0.112748 -0.755413,0.112748 z m 0.45851,-1.104933 q 0.353278,0 0.623873,-0.139056 0.270596,-0.142814 0.424685,-0.383344 0.154089,-0.240529 0.154089,-0.54495 v -0.612598 q -0.07517,0.04886 -0.206705,0.0902 -0.127781,0.03758 -0.289387,0.07141 -0.161605,0.03007 -0.323211,0.05637 -0.161606,0.02255 -0.293146,0.04134 -0.28187,0.04134 -0.492334,0.131539 -0.210463,0.0902 -0.326969,0.244288 -0.116507,0.150331 -0.116507,0.375827 0,0.32697 0.236771,0.499851 0.24053,0.169122 0.608841,0.169122 z" />
      <path
         id="path939"
         style="font-style:normal;font-variant:normal;font-weight:bold;font-stretch:normal;font-family:Inter;-inkscape-font-specification:'Inter Bold';fill:#5e4ae3;fill-opacity:1;stroke-width:0.264583"
         d="m 45.031561,64.931161 q -0.890711,0 -1.533376,-0.360794 -0.638906,-0.364553 -0.984667,-1.029767 -0.345762,-0.668973 -0.345762,-1.582234 0,-0.890711 0.345762,-1.563442 0.345761,-0.672731 0.973393,-1.048558 0.63139,-0.375828 1.480759,-0.375828 0.571258,0 1.063592,0.184156 0.496092,0.180397 0.864403,0.54495 0.372069,0.364552 0.578774,0.917018 0.206705,0.548708 0.206705,1.28533 v 0.439718 h -4.874481 v -0.992184 h 3.367413 q 0,-0.345761 -0.150331,-0.612599 -0.15033,-0.266837 -0.417168,-0.417168 -0.263079,-0.154089 -0.612599,-0.154089 -0.364552,0 -0.646423,0.169122 -0.278112,0.165364 -0.43596,0.447234 -0.157847,0.278113 -0.161605,0.620116 v 0.943326 q 0,0.428444 0.157847,0.74038 0.161606,0.311937 0.454751,0.48106 0.293146,0.169122 0.695281,0.169122 0.266838,0 0.488576,-0.07517 0.221738,-0.07516 0.379585,-0.225496 0.157848,-0.150331 0.24053,-0.368311 l 1.48076,0.09772 q -0.112748,0.533675 -0.462268,0.932052 -0.345761,0.394619 -0.894469,0.616357 -0.54495,0.21798 -1.259022,0.21798 z" />
      <path
         id="path941"
         style="font-style:normal;font-variant:normal;font-weight:bold;font-stretch:normal;font-family:Inter;-inkscape-font-specification:'Inter Bold';fill:#5e4ae3;fill-opacity:1;stroke-width:0.264583"
         d="m 51.555922,64.923644 q -0.841853,0 -1.499551,-0.289387 -0.65394,-0.293145 -1.033526,-0.80427 -0.375827,-0.514884 -0.387102,-1.187615 h 1.638608 q 0.01503,0.281871 0.184155,0.496092 0.172881,0.210464 0.45851,0.32697 0.285628,0.116507 0.642664,0.116507 0.37207,0 0.657698,-0.13154 0.285629,-0.13154 0.447235,-0.364553 0.161606,-0.233013 0.161606,-0.537433 0,-0.308178 -0.172881,-0.544949 -0.169122,-0.24053 -0.488576,-0.375828 -0.315695,-0.135298 -0.751654,-0.135298 h -0.717831 v -1.195131 h 0.717831 q 0.368311,0 0.650181,-0.127781 0.285629,-0.127781 0.443476,-0.353278 0.157848,-0.229255 0.157848,-0.533675 0,-0.289387 -0.139056,-0.507367 -0.135298,-0.221738 -0.383344,-0.345761 -0.244288,-0.124023 -0.571258,-0.124023 -0.330728,0 -0.605082,0.120265 -0.274354,0.116506 -0.439718,0.334486 -0.165364,0.21798 -0.176639,0.511125 h -1.559684 q 0.01128,-0.665214 0.379586,-1.172581 0.368311,-0.507367 0.992184,-0.792996 0.627632,-0.289387 1.41687,-0.289387 0.796754,0 1.394319,0.289387 0.597566,0.289387 0.928294,0.781721 0.334486,0.488576 0.330728,1.097416 0.0038,0.646423 -0.402135,1.078625 -0.402135,0.432201 -1.048559,0.548708 v 0.06013 q 0.84937,0.10899 1.292847,0.590049 0.447234,0.477301 0.443476,1.195131 0.0038,0.657698 -0.379586,1.168823 -0.379585,0.511126 -1.048558,0.804271 -0.668973,0.293145 -1.533376,0.293145 z" />
      <path
         id="path943"
         style="font-style:normal;font-variant:normal;font-weight:bold;font-stretch:normal;font-family:Inter;-inkscape-font-specification:'Inter Bold';fill:#5e4ae3;fill-opacity:1;stroke-width:0.264583"
         d="m 58.816909,59.045704 v 1.202648 h -3.562843 v -1.202648 z m -2.747298,5.772709 v -6.189878 q 0,-0.627631 0.244288,-1.041041 0.248046,-0.413411 0.676489,-0.620116 0.428443,-0.206705 0.973393,-0.206705 0.368311,0 0.672731,0.05637 0.308179,0.05637 0.45851,0.101474 l -0.285629,1.202647 q -0.09396,-0.03007 -0.233013,-0.05637 -0.135298,-0.02631 -0.278112,-0.02631 -0.353278,0 -0.492334,0.165365 -0.139056,0.161605 -0.139056,0.454751 v 6.159811 z" />
      <path
         id="path945"
         style="font-style:normal;font-variant:normal;font-weight:bold;font-stretch:normal;font-family:Inter;-inkscape-font-specification:'Inter Bold';fill:#5e4ae3;fill-opacity:1;stroke-width:0.264583"
         d="m 62.889,59.045704 v 1.202648 h -3.562844 v -1.202648 z m -2.747299,5.772709 v -6.189878 q 0,-0.627631 0.244288,-1.041041 0.248046,-0.413411 0.676489,-0.620116 0.428444,-0.206705 0.973393,-0.206705 0.368311,0 0.672731,0.05637 0.308179,0.05637 0.45851,0.101474 l -0.285629,1.202647 q -0.09396,-0.03007 -0.233013,-0.05637 -0.135298,-0.02631 -0.278112,-0.02631 -0.353278,0 -0.492334,0.165365 -0.139056,0.161605 -0.139056,0.454751 v 6.159811 z" />
    </g>
    <g
       style="font-size:10.5833px;line-height:1.25;font-family:Inter;-inkscape-font-specification:Inter;fill:url(#linearGradient990);fill-opacity:1;stroke-width:0.264583"
       id="text982"
       aria-label="#947bd3ff-#f26ca7ff">
      <path
         id="path890"
         style="font-style:normal;font-variant:normal;font-weight:bold;font-stretch:normal;font-family:Inter;-inkscape-font-specification:'Inter Bold';fill:url(#linearGradient990);fill-opacity:1;stroke-width:0.264583"
         d="m 80.767333,43.651749 1.26278,-7.696946 h 1.202648 l -1.26278,7.696946 z m -3.446337,-1.909204 0.199188,-1.202647 h 6.013239 l -0.199189,1.202647 z m 0.74038,1.909204 1.26278,-7.696946 h 1.202647 l -1.26278,7.696946 z m -0.300662,-4.585095 0.202946,-1.202647 h 6.013239 l -0.202947,1.202647 z" />
      <path
         id="path892"
         style="font-style:normal;font-variant:normal;font-weight:bold;font-stretch:normal;font-family:Inter;-inkscape-font-specification:'Inter Bold';fill:url(#linearGradient990);fill-opacity:1;stroke-width:0.264583"
         d="m 87.504039,35.827022 q 0.593807,0 1.142515,0.199189 0.552467,0.19543 0.984668,0.635148 0.43596,0.439718 0.687764,1.165065 0.255563,0.721589 0.259321,1.777664 -0.0038,0.980909 -0.225496,1.751355 -0.21798,0.766688 -0.627632,1.304121 -0.409652,0.537434 -0.988426,0.819304 -0.575016,0.278112 -1.289088,0.278112 -0.770446,0 -1.360495,-0.296903 -0.590049,-0.300662 -0.950844,-0.815546 -0.357036,-0.518642 -0.432201,-1.165065 h 1.604783 q 0.09396,0.420927 0.394619,0.65394 0.300662,0.229255 0.744138,0.229255 0.751655,0 1.142515,-0.65394 0.390861,-0.657698 0.394619,-1.800213 h -0.05262 q -0.17288,0.338244 -0.466026,0.582532 -0.293145,0.24053 -0.672731,0.372069 -0.375827,0.13154 -0.800512,0.13154 -0.680248,0 -1.217681,-0.319453 -0.533675,-0.319454 -0.841853,-0.879436 -0.308179,-0.563742 -0.304421,-1.28533 -0.0038,-0.781721 0.357036,-1.386803 0.360795,-0.608841 1.007218,-0.954602 0.650181,-0.345761 1.510826,-0.342003 z m 0.01127,1.277813 q -0.379586,0 -0.67649,0.180397 -0.293145,0.180398 -0.466025,0.488576 -0.169123,0.308179 -0.165365,0.691523 -0.0038,0.383343 0.161606,0.687764 0.169123,0.30442 0.462268,0.484817 0.293145,0.176639 0.668973,0.176639 0.28187,0 0.518642,-0.105232 0.240529,-0.105231 0.417168,-0.289387 0.180397,-0.187914 0.281871,-0.432201 0.101473,-0.248046 0.105231,-0.529917 -0.0038,-0.372069 -0.17288,-0.680248 -0.169123,-0.308178 -0.466026,-0.488575 -0.296904,-0.184156 -0.668973,-0.184156 z" />
      <path
         id="path894"
         style="font-style:normal;font-variant:normal;font-weight:bold;font-stretch:normal;font-family:Inter;-inkscape-font-specification:'Inter Bold';fill:url(#linearGradient990);fill-opacity:1;stroke-width:0.264583"
         d="m 91.589283,42.29877 v -1.281571 l 3.213324,-5.062396 h 1.104933 v 1.773906 H 95.2536 l -2.02571,3.205808 v 0.06013 h 4.566303 v 1.304121 z m 3.694383,1.352979 V 41.90791 l 0.03007,-0.5675 v -5.385607 h 1.52586 v 7.696946 z" />
      <path
         id="path896"
         style="font-style:normal;font-variant:normal;font-weight:bold;font-stretch:normal;font-family:Inter;-inkscape-font-specification:'Inter Bold';fill:url(#linearGradient990);fill-opacity:1;stroke-width:0.264583"
         d="m 99.182875,43.651749 3.190775,-6.313901 v -0.05262 h -3.716933 v -1.330429 h 5.400643 v 1.349221 l -3.19454,6.347725 z" />
      <path
         id="path898"
         style="font-style:normal;font-variant:normal;font-weight:bold;font-stretch:normal;font-family:Inter;-inkscape-font-specification:'Inter Bold';fill:url(#linearGradient990);fill-opacity:1;stroke-width:0.264583"
         d="m 105.22806,43.651749 v -7.696946 h 1.60102 v 2.893871 h 0.0489 q 0.10523,-0.233013 0.30442,-0.473542 0.20295,-0.244288 0.52616,-0.405894 0.32697,-0.165364 0.81179,-0.165364 0.63139,0 1.16506,0.330728 0.53368,0.32697 0.85313,0.988426 0.31945,0.657698 0.31945,1.649883 0,0.965876 -0.31193,1.631091 -0.30818,0.661456 -0.84186,1.003459 -0.52991,0.338245 -1.18761,0.338245 -0.46603,0 -0.793,-0.15409 -0.32321,-0.154089 -0.52991,-0.387102 -0.20671,-0.236771 -0.3157,-0.477301 h -0.0714 v 0.924536 z m 1.5672,-2.886355 q 0,0.514884 0.14281,0.898228 0.14282,0.383344 0.41341,0.597565 0.2706,0.210464 0.6577,0.210464 0.39086,0 0.66146,-0.214222 0.27059,-0.21798 0.40965,-0.601324 0.14281,-0.387102 0.14281,-0.890711 0,-0.49985 -0.13905,-0.879436 -0.13906,-0.379586 -0.40965,-0.593807 -0.2706,-0.214222 -0.66522,-0.214222 -0.39086,0 -0.66145,0.206705 -0.26684,0.206705 -0.40966,0.586291 -0.14281,0.379586 -0.14281,0.894469 z" />
      <path
         id="path900"
         style="font-style:normal;font-variant:normal;font-weight:bold;font-stretch:normal;font-family:Inter;-inkscape-font-specification:'Inter Bold';fill:url(#linearGradient990);fill-opacity:1;stroke-width:0.264583"
         d="m 114.04309,43.745706 q -0.6577,0 -1.19137,-0.338245 -0.52992,-0.342003 -0.84186,-1.003459 -0.30817,-0.665215 -0.30817,-1.631091 0,-0.992185 0.31945,-1.649883 0.31945,-0.661456 0.84937,-0.988426 0.53367,-0.330728 1.16882,-0.330728 0.48482,0 0.80803,0.165364 0.32697,0.161606 0.52616,0.405894 0.20295,0.240529 0.30818,0.473542 h 0.0489 v -2.893871 h 1.59726 v 7.696946 h -1.57847 v -0.924536 h -0.0677 q -0.11275,0.24053 -0.31946,0.477301 -0.20294,0.233013 -0.52991,0.387102 -0.32321,0.15409 -0.78924,0.15409 z m 0.50737,-1.274055 q 0.3871,0 0.65394,-0.210464 0.27059,-0.214221 0.41341,-0.597565 0.14657,-0.383344 0.14657,-0.898228 0,-0.514883 -0.14281,-0.894469 -0.14282,-0.379586 -0.41341,-0.586291 -0.2706,-0.206705 -0.6577,-0.206705 -0.39462,0 -0.66522,0.214222 -0.27059,0.214221 -0.40965,0.593807 -0.13906,0.379586 -0.13906,0.879436 0,0.503609 0.13906,0.890711 0.14282,0.383344 0.40965,0.601324 0.2706,0.214222 0.66522,0.214222 z" />
      <path
         id="path902"
         style="font-style:normal;font-variant:normal;font-weight:bold;font-stretch:normal;font-family:Inter;-inkscape-font-specification:'Inter Bold';fill:url(#linearGradient990);fill-opacity:1;stroke-width:0.264583"
         d="m 121.4638,43.75698 q -0.84185,0 -1.49955,-0.289387 -0.65394,-0.293145 -1.03352,-0.80427 -0.37583,-0.514884 -0.38711,-1.187615 h 1.63861 q 0.015,0.281871 0.18416,0.496092 0.17288,0.210464 0.45851,0.32697 0.28562,0.116507 0.64266,0.116507 0.37207,0 0.6577,-0.13154 0.28563,-0.13154 0.44723,-0.364553 0.16161,-0.233013 0.16161,-0.537433 0,-0.308178 -0.17288,-0.54495 -0.16912,-0.240529 -0.48858,-0.375827 -0.31569,-0.135298 -0.75165,-0.135298 h -0.71783 v -1.195131 h 0.71783 q 0.36831,0 0.65018,-0.127781 0.28563,-0.127782 0.44348,-0.353278 0.15784,-0.229255 0.15784,-0.533675 0,-0.289387 -0.13905,-0.507367 -0.1353,-0.221738 -0.38335,-0.345761 -0.24429,-0.124023 -0.57125,-0.124023 -0.33073,0 -0.60509,0.120265 -0.27435,0.116506 -0.43972,0.334486 -0.16536,0.21798 -0.17663,0.511125 h -1.55969 q 0.0113,-0.665214 0.37959,-1.172581 0.36831,-0.507367 0.99218,-0.792996 0.62763,-0.289387 1.41687,-0.289387 0.79676,0 1.39432,0.289387 0.59757,0.289387 0.92829,0.781721 0.33449,0.488576 0.33073,1.097416 0.004,0.646423 -0.40213,1.078625 -0.40214,0.432201 -1.04856,0.548708 v 0.06013 q 0.84937,0.10899 1.29285,0.590049 0.44723,0.477301 0.44347,1.195131 0.004,0.657698 -0.37958,1.168823 -0.37959,0.511126 -1.04856,0.804271 -0.66898,0.293145 -1.53338,0.293145 z" />
      <path
         id="path904"
         style="font-style:normal;font-variant:normal;font-weight:bold;font-stretch:normal;font-family:Inter;-inkscape-font-specification:'Inter Bold';fill:url(#linearGradient990);fill-opacity:1;stroke-width:0.264583"
         d="m 128.72479,37.87904 v 1.202647 h -3.56284 V 37.87904 Z m -2.7473,5.772709 v -6.189878 q 0,-0.627631 0.24429,-1.041042 0.24804,-0.41341 0.67649,-0.620115 0.42844,-0.206705 0.97339,-0.206705 0.36831,0 0.67273,0.05637 0.30818,0.05637 0.45851,0.101474 l -0.28563,1.202647 q -0.094,-0.03007 -0.23301,-0.05637 -0.1353,-0.02631 -0.27811,-0.02631 -0.35328,0 -0.49234,0.165364 -0.13905,0.161606 -0.13905,0.454752 v 6.159811 z" />
      <path
         id="path906"
         style="font-style:normal;font-variant:normal;font-weight:bold;font-stretch:normal;font-family:Inter;-inkscape-font-specification:'Inter Bold';fill:url(#linearGradient990);fill-opacity:1;stroke-width:0.264583"
         d="m 132.79688,37.87904 v 1.202647 h -3.56284 V 37.87904 Z m -2.7473,5.772709 v -6.189878 q 0,-0.627631 0.24429,-1.041042 0.24804,-0.41341 0.67649,-0.620115 0.42844,-0.206705 0.97339,-0.206705 0.36831,0 0.67273,0.05637 0.30818,0.05637 0.45851,0.101474 l -0.28563,1.202647 q -0.0939,-0.03007 -0.23301,-0.05637 -0.1353,-0.02631 -0.27811,-0.02631 -0.35328,0 -0.49234,0.165364 -0.13905,0.161606 -0.13905,0.454752 v 6.159811 z" />
      <path
         id="path908"
         style="font-style:normal;font-variant:normal;font-weight:bold;font-stretch:normal;font-family:Inter;-inkscape-font-specification:'Inter Bold';fill:url(#linearGradient990);fill-opacity:1;stroke-width:0.264583"
         d="m 137.1546,39.855892 v 1.270297 h -3.51023 v -1.270297 z" />
      <path
         id="path910"
         style="font-style:normal;font-variant:normal;font-weight:bold;font-stretch:normal;font-family:Inter;-inkscape-font-specification:'Inter Bold';fill:url(#linearGradient990);fill-opacity:1;stroke-width:0.264583"
         d="m 141.43527,43.651749 1.26278,-7.696946 h 1.20265 l -1.26278,7.696946 z m -3.44634,-1.909204 0.19919,-1.202647 h 6.01324 l -0.19919,1.202647 z m 0.74038,1.909204 1.26278,-7.696946 h 1.20265 l -1.26278,7.696946 z m -0.30066,-4.585095 0.20295,-1.202647 h 6.01324 l -0.20295,1.202647 z" />
      <path
         id="path912"
         style="font-style:normal;font-variant:normal;font-weight:bold;font-stretch:normal;font-family:Inter;-inkscape-font-specification:'Inter Bold';fill:url(#linearGradient990);fill-opacity:1;stroke-width:0.264583"
         d="m 148.50646,37.87904 v 1.202647 h -3.56284 V 37.87904 Z m -2.7473,5.772709 v -6.189878 q 0,-0.627631 0.24429,-1.041042 0.24805,-0.41341 0.67649,-0.620115 0.42844,-0.206705 0.97339,-0.206705 0.36832,0 0.67274,0.05637 0.30817,0.05637 0.4585,0.101474 l -0.28562,1.202647 q -0.094,-0.03007 -0.23302,-0.05637 -0.13529,-0.02631 -0.27811,-0.02631 -0.35328,0 -0.49233,0.165364 -0.13906,0.161606 -0.13906,0.454752 v 6.159811 z" />
      <path
         id="path914"
         style="font-style:normal;font-variant:normal;font-weight:bold;font-stretch:normal;font-family:Inter;-inkscape-font-specification:'Inter Bold';fill:url(#linearGradient990);fill-opacity:1;stroke-width:0.264583"
         d="m 149.45919,43.651749 v -1.172582 l 2.73978,-2.536835 q 0.34952,-0.338244 0.58629,-0.60884 0.24053,-0.270596 0.36455,-0.529917 0.12402,-0.263079 0.12402,-0.567499 0,-0.338245 -0.15409,-0.582533 -0.15408,-0.248046 -0.42092,-0.379585 -0.26684,-0.135298 -0.60508,-0.135298 -0.35328,0 -0.61636,0.142814 -0.26308,0.142815 -0.4059,0.409652 -0.14281,0.266838 -0.14281,0.635148 h -1.54465 q 0,-0.755413 0.342,-1.311637 0.34201,-0.556225 0.95836,-0.860645 0.61636,-0.30442 1.42063,-0.30442 0.82682,0 1.43942,0.293145 0.61636,0.289387 0.95836,0.804271 0.342,0.514883 0.342,1.180098 0,0.43596 -0.17288,0.860645 -0.16912,0.424685 -0.60508,0.943326 -0.43596,0.514884 -1.22896,1.236473 l -1.12372,1.101174 v 0.05262 h 3.23212 v 1.330429 z" />
      <path
         id="path916"
         style="font-style:normal;font-variant:normal;font-weight:bold;font-stretch:normal;font-family:Inter;-inkscape-font-specification:'Inter Bold';fill:url(#linearGradient990);fill-opacity:1;stroke-width:0.264583"
         d="m 159.08976,43.75698 q -0.5938,-0.0038 -1.14627,-0.199188 -0.54871,-0.19543 -0.98467,-0.635149 -0.4322,-0.439718 -0.68776,-1.165064 -0.25181,-0.725347 -0.25556,-1.781422 0.004,-0.977152 0.22173,-1.747598 0.22174,-0.770446 0.63139,-1.304121 0.41341,-0.537433 0.98843,-0.815545 0.57502,-0.281871 1.28909,-0.281871 0.77044,0 1.36049,0.300662 0.59005,0.300662 0.94709,0.815546 0.36079,0.514883 0.43596,1.161306 h -1.60479 q -0.0939,-0.420926 -0.39461,-0.650181 -0.30067,-0.233013 -0.74414,-0.233013 -0.75166,0 -1.14252,0.657698 -0.3871,0.653939 -0.39462,1.796455 h 0.0526 q 0.17288,-0.342003 0.46603,-0.582533 0.2969,-0.244288 0.67273,-0.372069 0.37958,-0.131539 0.80051,-0.131539 0.684,0 1.21768,0.323211 0.53367,0.319453 0.84185,0.879436 0.30818,0.559983 0.30818,1.281572 0,0.781721 -0.36455,1.390561 -0.3608,0.60884 -1.01098,0.954602 -0.64642,0.342003 -1.50331,0.338244 z m -0.008,-1.277813 q 0.37582,0 0.67273,-0.180397 0.2969,-0.180397 0.46602,-0.488576 0.16913,-0.308178 0.16913,-0.691522 0,-0.383344 -0.16913,-0.687764 -0.16536,-0.30442 -0.45851,-0.484818 -0.29314,-0.180397 -0.66897,-0.180397 -0.28187,0 -0.5224,0.105232 -0.23677,0.105232 -0.41717,0.293145 -0.17664,0.187914 -0.27811,0.43596 -0.10147,0.244288 -0.10147,0.5224 0,0.372069 0.16912,0.680248 0.17288,0.308178 0.46603,0.492334 0.2969,0.184155 0.67273,0.184155 z" />
      <path
         id="path918"
         style="font-style:normal;font-variant:normal;font-weight:bold;font-stretch:normal;font-family:Inter;-inkscape-font-specification:'Inter Bold';fill:url(#linearGradient990);fill-opacity:1;stroke-width:0.264583"
         d="m 165.74567,43.764497 q -0.88695,0 -1.52586,-0.375828 -0.63515,-0.379585 -0.97715,-1.052316 -0.33825,-0.672731 -0.33825,-1.548409 0,-0.886953 0.34201,-1.555926 0.34576,-0.672731 0.98091,-1.048558 0.63514,-0.379586 1.51082,-0.379586 0.75542,0 1.32291,0.274354 0.5675,0.274354 0.89823,0.770446 0.33073,0.496093 0.36455,1.165065 h -1.51082 q -0.0639,-0.432201 -0.33825,-0.69528 -0.27059,-0.266838 -0.71031,-0.266838 -0.37207,0 -0.65018,0.202947 -0.27436,0.199189 -0.42844,0.582533 -0.15409,0.383343 -0.15409,0.928293 0,0.552466 0.15033,0.939569 0.15409,0.387102 0.4322,0.590049 0.27811,0.202947 0.65018,0.202947 0.27435,0 0.49233,-0.112749 0.22174,-0.112748 0.36456,-0.32697 0.14657,-0.217979 0.19167,-0.5224 h 1.51082 q -0.0376,0.661457 -0.36079,1.165065 -0.31945,0.499851 -0.88319,0.781721 -0.56375,0.281871 -1.33419,0.281871 z" />
      <path
         id="path920"
         style="font-style:normal;font-variant:normal;font-weight:bold;font-stretch:normal;font-family:Inter;-inkscape-font-specification:'Inter Bold';fill:url(#linearGradient990);fill-opacity:1;stroke-width:0.264583"
         d="m 171.00537,43.760739 q -0.55247,0 -0.98467,-0.191672 -0.4322,-0.195431 -0.68401,-0.575016 -0.24804,-0.383344 -0.24804,-0.954602 0,-0.481059 0.17664,-0.808029 0.17664,-0.32697 0.48106,-0.526158 0.30442,-0.199189 0.69152,-0.300662 0.39086,-0.101473 0.8193,-0.142815 0.50361,-0.05262 0.81179,-0.09772 0.30818,-0.04886 0.44723,-0.142814 0.13906,-0.09396 0.13906,-0.278112 v -0.02255 q 0,-0.357036 -0.2255,-0.552466 -0.22173,-0.19543 -0.63139,-0.19543 -0.4322,0 -0.68776,0.191671 -0.25556,0.187914 -0.33825,0.473543 l -1.48076,-0.120265 q 0.11275,-0.526158 0.44348,-0.909502 0.33073,-0.387102 0.85313,-0.593807 0.52616,-0.210464 1.21768,-0.210464 0.48106,0 0.92078,0.112749 0.44347,0.112748 0.78548,0.349519 0.34576,0.236771 0.54495,0.60884 0.19918,0.368311 0.19918,0.883195 v 3.893572 h -1.51834 v -0.800513 h -0.0451 q -0.13905,0.270596 -0.37207,0.477301 -0.23301,0.202947 -0.55998,0.319453 -0.32697,0.112749 -0.75541,0.112749 z m 0.45851,-1.104933 q 0.35327,0 0.62387,-0.139056 0.2706,-0.142815 0.42469,-0.383344 0.15408,-0.24053 0.15408,-0.54495 v -0.612598 q -0.0752,0.04886 -0.2067,0.0902 -0.12778,0.03758 -0.28939,0.07141 -0.1616,0.03007 -0.32321,0.05637 -0.1616,0.02255 -0.29314,0.04134 -0.28188,0.04134 -0.49234,0.13154 -0.21046,0.0902 -0.32697,0.244288 -0.1165,0.150331 -0.1165,0.375827 0,0.32697 0.23677,0.499851 0.24053,0.169122 0.60884,0.169122 z" />
      <path
         id="path922"
         style="font-style:normal;font-variant:normal;font-weight:bold;font-stretch:normal;font-family:Inter;-inkscape-font-specification:'Inter Bold';fill:url(#linearGradient990);fill-opacity:1;stroke-width:0.264583"
         d="m 175.78778,43.651749 3.19077,-6.313901 v -0.05262 h -3.71693 v -1.330429 h 5.40064 v 1.349221 l -3.19454,6.347725 z" />
      <path
         id="path924"
         style="font-style:normal;font-variant:normal;font-weight:bold;font-stretch:normal;font-family:Inter;-inkscape-font-specification:'Inter Bold';fill:url(#linearGradient990);fill-opacity:1;stroke-width:0.264583"
         d="m 184.90723,37.87904 v 1.202647 h -3.56285 V 37.87904 Z m -2.7473,5.772709 v -6.189878 q 0,-0.627631 0.24429,-1.041042 0.24804,-0.41341 0.67649,-0.620115 0.42844,-0.206705 0.97339,-0.206705 0.36831,0 0.67273,0.05637 0.30818,0.05637 0.45851,0.101474 l -0.28563,1.202647 q -0.094,-0.03007 -0.23301,-0.05637 -0.1353,-0.02631 -0.27811,-0.02631 -0.35328,0 -0.49234,0.165364 -0.13905,0.161606 -0.13905,0.454752 v 6.159811 z" />
      <path
         id="path926"
         style="font-style:normal;font-variant:normal;font-weight:bold;font-stretch:normal;font-family:Inter;-inkscape-font-specification:'Inter Bold';fill:url(#linearGradient990);fill-opacity:1;stroke-width:0.264583"
         d="m 188.97932,37.87904 v 1.202647 h -3.56285 V 37.87904 Z m -2.7473,5.772709 v -6.189878 q 0,-0.627631 0.24429,-1.041042 0.24804,-0.41341 0.67649,-0.620115 0.42844,-0.206705 0.97339,-0.206705 0.36831,0 0.67273,0.05637 0.30818,0.05637 0.45851,0.101474 l -0.28563,1.202647 q -0.094,-0.03007 -0.23301,-0.05637 -0.1353,-0.02631 -0.27811,-0.02631 -0.35328,0 -0.49234,0.165364 -0.13905,0.161606 -0.13905,0.454752 v 6.159811 z" />
    </g>
    <g
       style="font-size:10.5833px;line-height:1.25;font-family:Inter;-inkscape-font-specification:Inter;fill:url(#linearGradient996);fill-opacity:1;stroke-width:0.264583"
       id="text994"
       aria-label="#f26ca7ff-#5e4ae3ff">
      <path
         id="path851"
         style="font-style:normal;font-variant:normal;font-weight:bold;font-stretch:normal;font-family:Inter;-inkscape-font-specification:'Inter Bold';fill:url(#linearGradient996);fill-opacity:1;stroke-width:0.264583"
         d="m 80.767333,54.235085 1.26278,-7.696946 h 1.202648 l -1.26278,7.696946 z m -3.446337,-1.909204 0.199188,-1.202647 h 6.013239 l -0.199189,1.202647 z m 0.74038,1.909204 1.26278,-7.696946 h 1.202647 l -1.26278,7.696946 z M 77.760714,49.64999 77.96366,48.447343 h 6.013239 l -0.202947,1.202647 z" />
      <path
         id="path853"
         style="font-style:normal;font-variant:normal;font-weight:bold;font-stretch:normal;font-family:Inter;-inkscape-font-specification:'Inter Bold';fill:url(#linearGradient996);fill-opacity:1;stroke-width:0.264583"
         d="m 87.838525,48.462376 v 1.202647 h -3.562843 v -1.202647 z m -2.747298,5.772709 v -6.189878 q 0,-0.627632 0.244288,-1.041042 0.248046,-0.41341 0.676489,-0.620115 0.428443,-0.206705 0.973393,-0.206705 0.368311,0 0.672731,0.05637 0.308179,0.05637 0.45851,0.101474 l -0.285629,1.202647 q -0.09396,-0.03007 -0.233013,-0.05637 -0.135298,-0.02631 -0.278112,-0.02631 -0.353278,0 -0.492334,0.165364 -0.139056,0.161606 -0.139056,0.454751 v 6.159812 z" />
      <path
         id="path855"
         style="font-style:normal;font-variant:normal;font-weight:bold;font-stretch:normal;font-family:Inter;-inkscape-font-specification:'Inter Bold';fill:url(#linearGradient996);fill-opacity:1;stroke-width:0.264583"
         d="m 88.791247,54.235085 v -1.172582 l 2.739782,-2.536835 q 0.349519,-0.338245 0.586291,-0.60884 0.240529,-0.270596 0.364552,-0.529917 0.124023,-0.263079 0.124023,-0.567499 0,-0.338245 -0.154089,-0.582533 -0.154089,-0.248046 -0.420927,-0.379585 -0.266837,-0.135298 -0.605082,-0.135298 -0.353278,0 -0.616357,0.142814 -0.263079,0.142814 -0.405893,0.409652 -0.142815,0.266837 -0.142815,0.635148 h -1.54465 q 0,-0.755413 0.342003,-1.311637 0.342003,-0.556225 0.958359,-0.860645 0.616357,-0.30442 1.420628,-0.30442 0.82682,0 1.439419,0.293145 0.616357,0.289387 0.95836,0.804271 0.342003,0.514883 0.342003,1.180098 0,0.43596 -0.172881,0.860644 -0.169122,0.424685 -0.605082,0.943327 -0.43596,0.514884 -1.228956,1.236472 l -1.123723,1.101175 v 0.05262 h 3.232115 v 1.330429 z" />
      <path
         id="path857"
         style="font-style:normal;font-variant:normal;font-weight:bold;font-stretch:normal;font-family:Inter;-inkscape-font-specification:'Inter Bold';fill:url(#linearGradient996);fill-opacity:1;stroke-width:0.264583"
         d="m 98.421825,54.340316 q -0.593807,-0.0038 -1.146273,-0.199188 -0.548708,-0.195431 -0.984668,-0.635149 -0.432202,-0.439718 -0.687764,-1.165065 -0.251805,-0.725346 -0.255563,-1.781421 0.0038,-0.977152 0.221738,-1.747598 0.221738,-0.770446 0.63139,-1.304121 0.41341,-0.537433 0.988426,-0.815545 0.575016,-0.281871 1.289088,-0.281871 0.770447,0 1.360496,0.300662 0.590045,0.300662 0.947085,0.815545 0.36079,0.514884 0.43596,1.161307 h -1.604784 q -0.09396,-0.420927 -0.394618,-0.650181 -0.300662,-0.233013 -0.744139,-0.233013 -0.751654,0 -1.142515,0.657698 -0.387102,0.653939 -0.394619,1.796455 h 0.05262 q 0.172881,-0.342003 0.466026,-0.582533 0.296904,-0.244288 0.672731,-0.372069 0.379586,-0.13154 0.800512,-0.13154 0.684006,0 1.21768,0.323212 0.53368,0.319453 0.84185,0.879436 0.30818,0.559983 0.30818,1.281572 0,0.781721 -0.36455,1.390561 -0.36079,0.60884 -1.010975,0.954602 -0.646423,0.342002 -1.50331,0.338244 z m -0.0075,-1.277813 q 0.375827,0 0.672731,-0.180397 0.296903,-0.180397 0.466026,-0.488576 0.169122,-0.308178 0.169122,-0.691522 0,-0.383344 -0.169122,-0.687764 -0.165364,-0.30442 -0.45851,-0.484818 -0.293145,-0.180397 -0.668972,-0.180397 -0.281871,0 -0.522401,0.105232 -0.236771,0.105232 -0.417168,0.293145 -0.176639,0.187914 -0.278112,0.43596 -0.101474,0.244288 -0.101474,0.5224 0,0.372069 0.169123,0.680248 0.17288,0.308178 0.466026,0.492334 0.296903,0.184155 0.672731,0.184155 z" />
      <path
         id="path859"
         style="font-style:normal;font-variant:normal;font-weight:bold;font-stretch:normal;font-family:Inter;-inkscape-font-specification:'Inter Bold';fill:url(#linearGradient996);fill-opacity:1;stroke-width:0.264583"
         d="m 105.07773,54.347833 q -0.88695,0 -1.52586,-0.375828 -0.63515,-0.379585 -0.97715,-1.052316 -0.33825,-0.672731 -0.33825,-1.548409 0,-0.886953 0.34201,-1.555926 0.34576,-0.672731 0.98091,-1.048558 0.63514,-0.379586 1.51082,-0.379586 0.75542,0 1.32291,0.274354 0.5675,0.274354 0.89823,0.770446 0.33073,0.496093 0.36455,1.165065 h -1.51082 q -0.0639,-0.432201 -0.33825,-0.69528 -0.27059,-0.266838 -0.71031,-0.266838 -0.37207,0 -0.65018,0.202947 -0.27436,0.199188 -0.42844,0.582532 -0.15409,0.383344 -0.15409,0.928294 0,0.552466 0.15033,0.939569 0.15409,0.387102 0.4322,0.590049 0.27811,0.202946 0.65018,0.202946 0.27435,0 0.49233,-0.112748 0.22174,-0.112748 0.36456,-0.32697 0.14657,-0.21798 0.19167,-0.5224 h 1.51082 q -0.0376,0.661456 -0.36079,1.165065 -0.31945,0.499851 -0.88319,0.781721 -0.56375,0.281871 -1.33419,0.281871 z" />
      <path
         id="path861"
         style="font-style:normal;font-variant:normal;font-weight:bold;font-stretch:normal;font-family:Inter;-inkscape-font-specification:'Inter Bold';fill:url(#linearGradient996);fill-opacity:1;stroke-width:0.264583"
         d="m 110.33743,54.344074 q -0.55246,0 -0.98466,-0.191671 -0.43221,-0.195431 -0.68401,-0.575016 -0.24805,-0.383344 -0.24805,-0.954602 0,-0.481059 0.17664,-0.808029 0.17664,-0.32697 0.48106,-0.526158 0.30442,-0.199189 0.69152,-0.300662 0.39086,-0.101474 0.81931,-0.142815 0.50361,-0.05261 0.81178,-0.09772 0.30818,-0.04886 0.44724,-0.142814 0.13906,-0.09396 0.13906,-0.278112 v -0.02255 q 0,-0.357036 -0.2255,-0.552466 -0.22174,-0.195431 -0.63139,-0.195431 -0.4322,0 -0.68777,0.191672 -0.25556,0.187914 -0.33824,0.473543 l -1.48076,-0.120265 q 0.11275,-0.526158 0.44348,-0.909502 0.33072,-0.387102 0.85312,-0.593807 0.52616,-0.210464 1.21769,-0.210464 0.48105,0 0.92077,0.112748 0.44348,0.112749 0.78548,0.34952 0.34576,0.236771 0.54495,0.60884 0.19919,0.368311 0.19919,0.883195 v 3.893572 H 112.07 v -0.800513 h -0.0451 q -0.13906,0.270596 -0.37207,0.477301 -0.23301,0.202947 -0.55998,0.319453 -0.32697,0.112748 -0.75542,0.112748 z m 0.45851,-1.104932 q 0.35328,0 0.62388,-0.139056 0.27059,-0.142815 0.42468,-0.383344 0.15409,-0.24053 0.15409,-0.54495 v -0.612599 q -0.0752,0.04886 -0.2067,0.0902 -0.12779,0.03758 -0.28939,0.07141 -0.16161,0.03007 -0.32321,0.05637 -0.16161,0.02255 -0.29315,0.04134 -0.28187,0.04134 -0.49233,0.13154 -0.21047,0.0902 -0.32697,0.244288 -0.11651,0.150331 -0.11651,0.375827 0,0.32697 0.23677,0.499851 0.24053,0.169122 0.60884,0.169122 z" />
      <path
         id="path863"
         style="font-style:normal;font-variant:normal;font-weight:bold;font-stretch:normal;font-family:Inter;-inkscape-font-specification:'Inter Bold';fill:url(#linearGradient996);fill-opacity:1;stroke-width:0.264583"
         d="m 115.11984,54.235085 3.19077,-6.313901 v -0.05262 h -3.71693 v -1.330429 h 5.40064 v 1.349221 l -3.19453,6.347725 z" />
      <path
         id="path865"
         style="font-style:normal;font-variant:normal;font-weight:bold;font-stretch:normal;font-family:Inter;-inkscape-font-specification:'Inter Bold';fill:url(#linearGradient996);fill-opacity:1;stroke-width:0.264583"
         d="m 124.23929,48.462376 v 1.202647 h -3.56284 v -1.202647 z m -2.7473,5.772709 v -6.189878 q 0,-0.627632 0.24429,-1.041042 0.24804,-0.41341 0.67649,-0.620115 0.42844,-0.206705 0.97339,-0.206705 0.36831,0 0.67273,0.05637 0.30818,0.05637 0.45851,0.101474 l -0.28563,1.202647 q -0.0939,-0.03007 -0.23301,-0.05637 -0.1353,-0.02631 -0.27811,-0.02631 -0.35328,0 -0.49234,0.165364 -0.13905,0.161606 -0.13905,0.454751 v 6.159812 z" />
      <path
         id="path867"
         style="font-style:normal;font-variant:normal;font-weight:bold;font-stretch:normal;font-family:Inter;-inkscape-font-specification:'Inter Bold';fill:url(#linearGradient996);fill-opacity:1;stroke-width:0.264583"
         d="m 128.31138,48.462376 v 1.202647 h -3.56284 v -1.202647 z m -2.7473,5.772709 v -6.189878 q 0,-0.627632 0.24429,-1.041042 0.24804,-0.41341 0.67649,-0.620115 0.42844,-0.206705 0.97339,-0.206705 0.36831,0 0.67273,0.05637 0.30818,0.05637 0.45851,0.101474 l -0.28563,1.202647 q -0.0939,-0.03007 -0.23301,-0.05637 -0.1353,-0.02631 -0.27811,-0.02631 -0.35328,0 -0.49234,0.165364 -0.13905,0.161606 -0.13905,0.454751 v 6.159812 z" />
      <path
         id="path869"
         style="font-style:normal;font-variant:normal;font-weight:bold;font-stretch:normal;font-family:Inter;-inkscape-font-specification:'Inter Bold';fill:url(#linearGradient996);fill-opacity:1;stroke-width:0.264583"
         d="m 132.6691,50.439228 v 1.270296 h -3.51023 v -1.270296 z" />
      <path
         id="path871"
         style="font-style:normal;font-variant:normal;font-weight:bold;font-stretch:normal;font-family:Inter;-inkscape-font-specification:'Inter Bold';fill:url(#linearGradient996);fill-opacity:1;stroke-width:0.264583"
         d="m 136.94977,54.235085 1.26278,-7.696946 h 1.20265 l -1.26278,7.696946 z m -3.44634,-1.909204 0.19919,-1.202647 h 6.01324 l -0.19919,1.202647 z m 0.74038,1.909204 1.26278,-7.696946 h 1.20265 l -1.26278,7.696946 z m -0.30066,-4.585095 0.20295,-1.202647 h 6.01324 l -0.20295,1.202647 z" />
      <path
         id="path873"
         style="font-style:normal;font-variant:normal;font-weight:bold;font-stretch:normal;font-family:Inter;-inkscape-font-specification:'Inter Bold';fill:url(#linearGradient996);fill-opacity:1;stroke-width:0.264583"
         d="m 143.71278,54.340316 q -0.79675,0 -1.42062,-0.293145 -0.62012,-0.293146 -0.98467,-0.808029 -0.36455,-0.514884 -0.37959,-1.180098 h 1.57848 q 0.0263,0.447234 0.37583,0.725347 0.34951,0.278112 0.83057,0.278112 0.38335,0 0.67649,-0.169122 0.29691,-0.172881 0.46227,-0.477301 0.16912,-0.308179 0.16912,-0.706556 0,-0.405893 -0.17288,-0.714072 -0.16912,-0.308178 -0.46978,-0.481059 -0.30066,-0.17288 -0.68777,-0.176639 -0.33824,0 -0.65769,0.139057 -0.3157,0.139056 -0.49234,0.379585 l -1.44693,-0.259321 0.36455,-4.058936 h 4.70536 v 1.330429 h -3.36366 l -0.19919,1.927995 h 0.0451 q 0.20295,-0.285629 0.6126,-0.473543 0.40965,-0.187913 0.91702,-0.187913 0.69528,0 1.24023,0.32697 0.54495,0.326969 0.86065,0.898227 0.31569,0.567499 0.31193,1.307879 0.004,0.777963 -0.36079,1.383045 -0.3608,0.601324 -1.01098,0.947085 -0.64642,0.342003 -1.50331,0.342003 z" />
      <path
         id="path875"
         style="font-style:normal;font-variant:normal;font-weight:bold;font-stretch:normal;font-family:Inter;-inkscape-font-specification:'Inter Bold';fill:url(#linearGradient996);fill-opacity:1;stroke-width:0.264583"
         d="m 150.36869,54.347833 q -0.89071,0 -1.53338,-0.360795 -0.6389,-0.364552 -0.98466,-1.029767 -0.34577,-0.668972 -0.34577,-1.582233 0,-0.890711 0.34577,-1.563442 0.34576,-0.672731 0.97339,-1.048558 0.63139,-0.375828 1.48076,-0.375828 0.57126,0 1.06359,0.184156 0.49609,0.180397 0.8644,0.544949 0.37207,0.364553 0.57878,0.917019 0.2067,0.548708 0.2067,1.28533 v 0.439718 h -4.87448 v -0.992184 h 3.36742 q 0,-0.345762 -0.15034,-0.612599 -0.15033,-0.266838 -0.41716,-0.417168 -0.26308,-0.15409 -0.6126,-0.15409 -0.36456,0 -0.64643,0.169123 -0.27811,0.165364 -0.43596,0.447234 -0.15784,0.278113 -0.1616,0.620115 v 0.943327 q 0,0.428443 0.15785,0.74038 0.1616,0.311937 0.45475,0.481059 0.29314,0.169123 0.69528,0.169123 0.26684,0 0.48857,-0.07517 0.22174,-0.07517 0.37959,-0.225496 0.15785,-0.150331 0.24053,-0.368311 l 1.48076,0.09772 q -0.11275,0.533675 -0.46227,0.932052 -0.34576,0.394619 -0.89447,0.616357 -0.54495,0.21798 -1.25902,0.21798 z" />
      <path
         id="path877"
         style="font-style:normal;font-variant:normal;font-weight:bold;font-stretch:normal;font-family:Inter;-inkscape-font-specification:'Inter Bold';fill:url(#linearGradient996);fill-opacity:1;stroke-width:0.264583"
         d="m 153.93153,52.882106 v -1.281572 l 3.21333,-5.062395 h 1.10493 v 1.773906 h -0.65394 l -2.02571,3.205807 v 0.06013 h 4.5663 v 1.304121 z m 3.69438,1.352979 v -1.74384 l 0.0301,-0.567499 v -5.385607 h 1.52586 v 7.696946 z" />
      <path
         id="path879"
         style="font-style:normal;font-variant:normal;font-weight:bold;font-stretch:normal;font-family:Inter;-inkscape-font-specification:'Inter Bold';fill:url(#linearGradient996);fill-opacity:1;stroke-width:0.264583"
         d="m 162.88186,54.344074 q -0.55246,0 -0.98466,-0.191671 -0.43221,-0.195431 -0.68401,-0.575016 -0.24805,-0.383344 -0.24805,-0.954602 0,-0.481059 0.17664,-0.808029 0.17664,-0.32697 0.48106,-0.526158 0.30442,-0.199189 0.69152,-0.300662 0.39086,-0.101474 0.81931,-0.142815 0.50361,-0.05261 0.81178,-0.09772 0.30818,-0.04886 0.44724,-0.142814 0.13906,-0.09396 0.13906,-0.278112 v -0.02255 q 0,-0.357036 -0.2255,-0.552466 -0.22174,-0.195431 -0.63139,-0.195431 -0.4322,0 -0.68777,0.191672 -0.25556,0.187914 -0.33824,0.473543 l -1.48076,-0.120265 q 0.11275,-0.526158 0.44348,-0.909502 0.33072,-0.387102 0.85312,-0.593807 0.52616,-0.210464 1.21769,-0.210464 0.48105,0 0.92077,0.112748 0.44348,0.112749 0.78548,0.34952 0.34576,0.236771 0.54495,0.60884 0.19919,0.368311 0.19919,0.883195 v 3.893572 h -1.51834 v -0.800513 h -0.0451 q -0.13906,0.270596 -0.37207,0.477301 -0.23301,0.202947 -0.55998,0.319453 -0.32697,0.112748 -0.75542,0.112748 z m 0.45851,-1.104932 q 0.35328,0 0.62388,-0.139056 0.27059,-0.142815 0.42468,-0.383344 0.15409,-0.24053 0.15409,-0.54495 v -0.612599 q -0.0752,0.04886 -0.20671,0.0902 -0.12778,0.03758 -0.28938,0.07141 -0.16161,0.03007 -0.32321,0.05637 -0.16161,0.02255 -0.29315,0.04134 -0.28187,0.04134 -0.49233,0.13154 -0.21047,0.0902 -0.32697,0.244288 -0.11651,0.150331 -0.11651,0.375827 0,0.32697 0.23677,0.499851 0.24053,0.169122 0.60884,0.169122 z" />
      <path
         id="path881"
         style="font-style:normal;font-variant:normal;font-weight:bold;font-stretch:normal;font-family:Inter;-inkscape-font-specification:'Inter Bold';fill:url(#linearGradient996);fill-opacity:1;stroke-width:0.264583"
         d="m 170.00567,54.347833 q -0.89071,0 -1.53338,-0.360795 -0.6389,-0.364552 -0.98467,-1.029767 -0.34576,-0.668972 -0.34576,-1.582233 0,-0.890711 0.34576,-1.563442 0.34577,-0.672731 0.9734,-1.048558 0.63139,-0.375828 1.48076,-0.375828 0.57125,0 1.06359,0.184156 0.49609,0.180397 0.8644,0.544949 0.37207,0.364553 0.57878,0.917019 0.2067,0.548708 0.2067,1.28533 v 0.439718 h -4.87448 v -0.992184 h 3.36741 q 0,-0.345762 -0.15033,-0.612599 -0.15033,-0.266838 -0.41717,-0.417168 -0.26308,-0.15409 -0.61259,-0.15409 -0.36456,0 -0.64643,0.169123 -0.27811,0.165364 -0.43596,0.447234 -0.15785,0.278113 -0.1616,0.620115 v 0.943327 q 0,0.428443 0.15784,0.74038 0.16161,0.311937 0.45476,0.481059 0.29314,0.169123 0.69528,0.169123 0.26683,0 0.48857,-0.07517 0.22174,-0.07517 0.37959,-0.225496 0.15784,-0.150331 0.24053,-0.368311 l 1.48076,0.09772 q -0.11275,0.533675 -0.46227,0.932052 -0.34576,0.394619 -0.89447,0.616357 -0.54495,0.21798 -1.25902,0.21798 z" />
      <path
         id="path883"
         style="font-style:normal;font-variant:normal;font-weight:bold;font-stretch:normal;font-family:Inter;-inkscape-font-specification:'Inter Bold';fill:url(#linearGradient996);fill-opacity:1;stroke-width:0.264583"
         d="m 176.53004,54.340316 q -0.84186,0 -1.49955,-0.289387 -0.65394,-0.293145 -1.03353,-0.804271 -0.37583,-0.514883 -0.3871,-1.187614 h 1.63861 q 0.015,0.28187 0.18415,0.496092 0.17288,0.210463 0.45851,0.32697 0.28563,0.116506 0.64266,0.116506 0.37207,0 0.6577,-0.131539 0.28563,-0.13154 0.44724,-0.364553 0.1616,-0.233013 0.1616,-0.537433 0,-0.308178 -0.17288,-0.54495 -0.16912,-0.240529 -0.48857,-0.375827 -0.3157,-0.135298 -0.75166,-0.135298 h -0.71783 v -1.195131 h 0.71783 q 0.36831,0 0.65018,-0.127781 0.28563,-0.127782 0.44348,-0.353278 0.15785,-0.229255 0.15785,-0.533675 0,-0.289387 -0.13906,-0.507367 -0.1353,-0.221738 -0.38334,-0.345761 -0.24429,-0.124023 -0.57126,-0.124023 -0.33073,0 -0.60508,0.120264 -0.27436,0.116507 -0.43972,0.334487 -0.16536,0.21798 -0.17664,0.511125 h -1.55968 q 0.0113,-0.665214 0.37958,-1.172581 0.36831,-0.507367 0.99219,-0.792996 0.62763,-0.289387 1.41687,-0.289387 0.79675,0 1.39432,0.289387 0.59756,0.289387 0.92829,0.781721 0.33449,0.488575 0.33073,1.097416 0.004,0.646423 -0.40214,1.078624 -0.40213,0.432202 -1.04856,0.548708 v 0.06013 q 0.84937,0.10899 1.29285,0.590049 0.44723,0.477301 0.44348,1.195131 0.004,0.657698 -0.37959,1.168823 -0.37958,0.511125 -1.04856,0.804271 -0.66897,0.293145 -1.53337,0.293145 z" />
      <path
         id="path885"
         style="font-style:normal;font-variant:normal;font-weight:bold;font-stretch:normal;font-family:Inter;-inkscape-font-specification:'Inter Bold';fill:url(#linearGradient996);fill-opacity:1;stroke-width:0.264583"
         d="m 183.79102,48.462376 v 1.202647 h -3.56285 v -1.202647 z m -2.7473,5.772709 v -6.189878 q 0,-0.627632 0.24429,-1.041042 0.24804,-0.41341 0.67649,-0.620115 0.42844,-0.206705 0.97339,-0.206705 0.36831,0 0.67273,0.05637 0.30818,0.05637 0.45851,0.101474 l -0.28563,1.202647 q -0.094,-0.03007 -0.23301,-0.05637 -0.1353,-0.02631 -0.27812,-0.02631 -0.35327,0 -0.49233,0.165364 -0.13906,0.161606 -0.13906,0.454751 v 6.159812 z" />
      <path
         id="path887"
         style="font-style:normal;font-variant:normal;font-weight:bold;font-stretch:normal;font-family:Inter;-inkscape-font-specification:'Inter Bold';fill:url(#linearGradient996);fill-opacity:1;stroke-width:0.264583"
         d="m 187.86311,48.462376 v 1.202647 h -3.56285 v -1.202647 z m -2.7473,5.772709 v -6.189878 q 0,-0.627632 0.24429,-1.041042 0.24804,-0.41341 0.67649,-0.620115 0.42844,-0.206705 0.97339,-0.206705 0.36831,0 0.67273,0.05637 0.30818,0.05637 0.45851,0.101474 l -0.28563,1.202647 q -0.094,-0.03007 -0.23301,-0.05637 -0.1353,-0.02631 -0.27812,-0.02631 -0.35327,0 -0.49233,0.165364 -0.13906,0.161606 -0.13906,0.454751 v 6.159812 z" />
    </g>
  </g>
</svg>
