<?xml version="1.0" encoding="UTF-8" standalone="no"?>
<svg
   xmlns:dc="http://purl.org/dc/elements/1.1/"
   xmlns:cc="http://creativecommons.org/ns#"
   xmlns:rdf="http://www.w3.org/1999/02/22-rdf-syntax-ns#"
   xmlns:svg="http://www.w3.org/2000/svg"
   xmlns="http://www.w3.org/2000/svg"
   xmlns:sodipodi="http://sodipodi.sourceforge.net/DTD/sodipodi-0.dtd"
   xmlns:inkscape="http://www.inkscape.org/namespaces/inkscape"
   width="93.847794mm"
   height="16.579317mm"
   viewBox="0 0 93.847794 16.579317"
   version="1.1"
   id="svg1006"
   inkscape:version="1.0 (4035a4fb49, 2020-05-01)"
   sodipodi:docname="fullgrey.svg">
  <defs
     id="defs1000" />
  <sodipodi:namedview
     id="base"
     pagecolor="#ffffff"
     bordercolor="#666666"
     borderopacity="1.0"
     inkscape:pageopacity="0.0"
     inkscape:pageshadow="2"
     inkscape:zoom="1.4"
     inkscape:cx="130.50742"
     inkscape:cy="117.90194"
     inkscape:document-units="mm"
     inkscape:current-layer="layer1"
     inkscape:document-rotation="0"
     showgrid="false"
     fit-margin-top="0"
     fit-margin-left="0"
     fit-margin-right="0"
     fit-margin-bottom="0"
     inkscape:window-width="1452"
     inkscape:window-height="1080"
     inkscape:window-x="327"
     inkscape:window-y="0"
     inkscape:window-maximized="0" />
  <metadata
     id="metadata1003">
    <rdf:RDF>
      <cc:Work
         rdf:about="">
        <dc:format>image/svg+xml</dc:format>
        <dc:type
           rdf:resource="http://purl.org/dc/dcmitype/StillImage" />
        <dc:title />
      </cc:Work>
    </rdf:RDF>
  </metadata>
  <g
     inkscape:label="Calque 1"
     inkscape:groupmode="layer"
     id="layer1"
     transform="translate(-18.619024,-15.832141)">
    <path
       inkscape:export-ydpi="96"
       inkscape:export-xdpi="96"
       inkscape:export-filename="D:\Projects\Kolumbao\old\kolumbao.github.io\img\logo\fullgrey.png"
       inkscape:connector-curvature="0"
       style="fill:#666666;fill-opacity:1;stroke-width:0.0277013"
       d="m 29.032182,32.392655 c -0.07617,-0.0049 -0.325292,-0.02823 -0.553586,-0.05195 -2.699722,-0.280496 -5.283821,-1.618415 -7.086309,-3.66894 -1.537932,-1.749567 -2.460852,-3.839197 -2.722247,-6.163574 -0.06511,-0.578979 -0.06748,-1.483862 -0.0046,-1.751909 0.202569,-0.863278 0.759409,-1.562017 1.533473,-1.924246 0.0971,-0.04543 0.177234,-0.09702 0.178081,-0.114629 8.28e-4,-0.0176 0.08551,-0.673997 0.188137,-1.458641 l 0.186595,-1.426625 0.164929,0.512478 c 0.09071,0.281862 0.289642,0.897626 0.442072,1.368365 l 0.277143,0.855888 0.263164,0.05291 c 1.011339,0.203339 1.822182,0.949598 2.1224,1.95335 0.08825,0.295069 0.108722,0.726955 0.07454,1.57294 -0.04234,1.048194 0.02517,1.945203 0.215196,2.858953 0.62096,2.985963 2.4812,5.610665 5.103465,7.200721 l 0.335955,0.203713 -0.289966,-0.005 c -0.15948,-0.0027 -0.352291,-0.009 -0.428471,-0.01382 z"
       id="path4715-1" />
    <path
       inkscape:export-ydpi="96"
       inkscape:export-xdpi="96"
       inkscape:export-filename="D:\Projects\Kolumbao\old\kolumbao.github.io\img\logo\fullgrey.png"
       inkscape:connector-curvature="0"
       style="fill:#666666;fill-opacity:1;stroke-width:0.0277013"
       d="m 19.827143,31.89206 c -0.643642,-1.264177 -1.013246,-2.523223 -1.173041,-3.995934 -0.03915,-0.36077 -0.04817,-1.660243 -0.01354,-1.950706 l 0.02285,-0.191664 0.108893,0.260918 c 0.411782,0.986667 1.02184,1.97957 1.746558,2.842619 l 0.213944,0.25478 -0.107153,0.318951 c -0.276175,0.822054 -0.527016,2.124953 -0.527145,2.738051 -1.8e-5,0.0876 -0.0111,0.159283 -0.02463,0.159283 -0.01353,0 -0.124553,-0.196335 -0.246726,-0.436298 z"
       id="path4713-3" />
    <path
       inkscape:export-ydpi="96"
       inkscape:export-xdpi="96"
       inkscape:export-filename="D:\Projects\Kolumbao\old\kolumbao.github.io\img\logo\fullgrey.png"
       inkscape:connector-curvature="0"
       style="fill:#666666;fill-opacity:1;stroke-width:0.0277013"
       d="m 25.340285,26.144009 c -0.314261,-0.830615 -0.508702,-1.58739 -0.630618,-2.454413 l -0.04812,-0.342176 0.114375,-0.214658 c 0.155333,-0.291528 0.39588,-0.897926 0.499293,-1.258674 0.186669,-0.651174 0.262728,-1.22015 0.261468,-1.955981 -0.0023,-1.37376 -0.378008,-2.640027 -1.117132,-3.765651 -0.09291,-0.141487 -0.164224,-0.261944 -0.158487,-0.267682 0.02144,-0.02144 0.471084,0.306528 0.759902,0.554262 1.329608,1.140473 2.149077,2.66359 2.378543,4.420921 0.06489,0.496944 0.04351,1.512688 -0.0419,1.990948 -0.235749,1.320029 -0.794418,2.472912 -1.690396,3.488342 -0.08338,0.09449 -0.159799,0.171806 -0.169827,0.171806 -0.01003,0 -0.08072,-0.16517 -0.157104,-0.367044 z"
       id="path4703-5" />
    <g
       style="font-style:normal;font-variant:normal;font-weight:bold;font-stretch:normal;font-size:16.3645px;line-height:1.35;font-family:Inter;-inkscape-font-specification:'Inter Bold';fill:#666666;fill-opacity:1;stroke:none;stroke-width:0.219167"
       id="text835-9"
       aria-label="Kolumbao">
      <path
         id="path835"
         style="font-style:normal;font-variant:normal;font-weight:bold;font-stretch:normal;font-size:16.3645px;font-family:Inter;-inkscape-font-specification:'Inter Bold';fill:#666666;stroke-width:0.219167"
         d="M 33.994506,29.982462 V 18.081007 h 2.516274 v 5.247566 h 0.156904 l 4.282897,-5.247566 h 3.016042 l -4.416555,5.328923 4.468856,6.572532 H 41.008693 L 37.748578,25.089383 36.51078,26.60031 v 3.382152 z" />
      <path
         id="path837"
         style="font-style:normal;font-variant:normal;font-weight:bold;font-stretch:normal;font-size:16.3645px;font-family:Inter;-inkscape-font-specification:'Inter Bold';fill:#666666;stroke-width:0.219167"
         d="m 48.624345,30.1568 q -1.354022,0 -2.341936,-0.575315 -0.982103,-0.581126 -1.516738,-1.615529 -0.534636,-1.040215 -0.534636,-2.411672 0,-1.383079 0.534636,-2.417483 0.534635,-1.040215 1.516738,-1.615529 0.987914,-0.581126 2.341936,-0.581126 1.354023,0 2.336126,0.581126 0.987914,0.575314 1.522549,1.615529 0.534636,1.034404 0.534636,2.417483 0,1.371457 -0.534636,2.411672 -0.534635,1.034403 -1.522549,1.615529 -0.982103,0.575315 -2.336126,0.575315 z m 0.01162,-1.917715 q 0.615993,0 1.028592,-0.348676 0.4126,-0.354486 0.621805,-0.964668 0.215017,-0.610182 0.215017,-1.388891 0,-0.778708 -0.215017,-1.38889 -0.209205,-0.610182 -0.621805,-0.964669 -0.412599,-0.354487 -1.028592,-0.354487 -0.621805,0 -1.046026,0.354487 -0.418411,0.354487 -0.633427,0.964669 -0.209206,0.610182 -0.209206,1.38889 0,0.778709 0.209206,1.388891 0.215016,0.610182 0.633427,0.964668 0.424221,0.348676 1.046026,0.348676 z" />
      <path
         id="path839"
         style="font-style:normal;font-variant:normal;font-weight:bold;font-stretch:normal;font-size:16.3645px;font-family:Inter;-inkscape-font-specification:'Inter Bold';fill:#666666;stroke-width:0.219167"
         d="M 57.102971,18.081007 V 29.982462 H 54.627375 V 18.081007 Z" />
      <path
         id="path841"
         style="font-style:normal;font-variant:normal;font-weight:bold;font-stretch:normal;font-size:16.3645px;font-family:Inter;-inkscape-font-specification:'Inter Bold';fill:#666666;stroke-width:0.219167"
         d="m 64.794169,26.1819 v -5.125529 h 2.475595 v 8.926091 H 64.89296 v -1.621341 h -0.09298 q -0.302185,0.78452 -1.005348,1.261043 -0.69735,0.476523 -1.702698,0.476523 -0.894934,0 -1.574851,-0.406788 -0.679917,-0.406788 -1.06346,-1.15644 -0.377731,-0.749652 -0.383543,-1.795679 v -5.683409 h 2.475596 v 5.241754 q 0.0058,0.790331 0.424222,1.24942 0.41841,0.45909 1.121572,0.45909 0.447467,0 0.836821,-0.203394 0.389355,-0.209206 0.627616,-0.615994 0.244073,-0.406788 0.238262,-1.005347 z" />
      <path
         id="path843"
         style="font-style:normal;font-variant:normal;font-weight:bold;font-stretch:normal;font-size:16.3645px;font-family:Inter;-inkscape-font-specification:'Inter Bold';fill:#666666;stroke-width:0.219167"
         d="m 69.233969,29.982462 v -8.926091 h 2.359371 v 1.574851 h 0.104602 q 0.278941,-0.78452 0.929801,-1.237798 0.650861,-0.453278 1.557417,-0.453278 0.918179,0 1.563229,0.459089 0.645049,0.453278 0.860066,1.231987 h 0.09298 q 0.273129,-0.767086 0.987913,-1.226176 0.720596,-0.4649 1.702699,-0.4649 1.24942,0 2.028128,0.796142 0.78452,0.790331 0.78452,2.243145 v 6.003029 h -2.469784 v -5.514883 q 0,-0.743841 -0.395166,-1.115761 -0.395165,-0.371921 -0.987913,-0.371921 -0.674106,0 -1.051838,0.430033 -0.377732,0.424222 -0.377732,1.121573 v 5.450959 h -2.400049 v -5.567184 q 0,-0.656672 -0.377731,-1.046027 -0.371921,-0.389354 -0.982103,-0.389354 -0.412599,0 -0.743841,0.209205 -0.32543,0.203394 -0.517202,0.575315 -0.191771,0.366109 -0.191771,0.860066 v 5.357979 z" />
      <path
         id="path845"
         style="font-style:normal;font-variant:normal;font-weight:bold;font-stretch:normal;font-size:16.3645px;font-family:Inter;-inkscape-font-specification:'Inter Bold';fill:#666666;stroke-width:0.219167"
         d="M 84.206672,29.982462 V 18.081007 h 2.475595 v 4.474668 h 0.07555 q 0.162715,-0.360298 0.470711,-0.732218 0.313808,-0.377732 0.813576,-0.627616 0.50558,-0.255695 1.255232,-0.255695 0.976291,0 1.80149,0.51139 0.825198,0.50558 1.319155,1.528361 0.493957,1.01697 0.493957,2.551142 0,1.493493 -0.482334,2.522086 -0.476524,1.022781 -1.301722,1.551605 -0.819387,0.523013 -1.836357,0.523013 -0.720596,0 -1.226176,-0.238261 -0.499768,-0.238262 -0.819387,-0.59856 -0.319619,-0.366109 -0.488145,-0.738029 H 86.6474 v 1.429569 z m 2.423294,-4.463046 q 0,0.796143 0.220828,1.388891 0.220827,0.592748 0.639238,0.92399 0.41841,0.32543 1.01697,0.32543 0.604371,0 1.022781,-0.331241 0.418411,-0.337053 0.633427,-0.929802 0.220828,-0.598559 0.220828,-1.377268 0,-0.772897 -0.215017,-1.359834 -0.215016,-0.586937 -0.633427,-0.918178 -0.41841,-0.331242 -1.028592,-0.331242 -0.604371,0 -1.022781,0.319619 -0.4126,0.319619 -0.633427,0.906556 -0.220828,0.586937 -0.220828,1.383079 z" />
      <path
         id="path847"
         style="font-style:normal;font-variant:normal;font-weight:bold;font-stretch:normal;font-size:16.3645px;font-family:Inter;-inkscape-font-specification:'Inter Bold';fill:#666666;stroke-width:0.219167"
         d="m 97.093135,30.150988 q -0.854255,0 -1.522549,-0.296374 -0.668295,-0.302185 -1.057649,-0.889122 -0.383543,-0.592748 -0.383543,-1.476059 0,-0.743841 0.273129,-1.249421 0.273129,-0.505579 0.743841,-0.813576 0.470712,-0.307996 1.069271,-0.4649 0.604371,-0.156904 1.266854,-0.220828 0.778709,-0.08136 1.255232,-0.151093 0.476523,-0.07555 0.691539,-0.220827 0.215017,-0.145282 0.215017,-0.430033 v -0.03487 q 0,-0.552069 -0.348675,-0.854255 -0.342865,-0.302185 -0.976292,-0.302185 -0.668294,0 -1.06346,0.296374 -0.395165,0.290563 -0.523013,0.732218 l -2.289635,-0.18596 q 0.174338,-0.813576 0.685728,-1.406324 0.511391,-0.59856 1.319156,-0.918179 0.813576,-0.32543 1.882847,-0.32543 0.743841,0 1.423758,0.174338 0.685729,0.174337 1.214549,0.540446 0.53464,0.36611 0.84264,0.941424 0.30799,0.569503 0.30799,1.365646 v 6.020462 h -2.347745 v -1.237798 h -0.06974 q -0.215017,0.418411 -0.575315,0.73803 -0.360298,0.313808 -0.865877,0.493957 -0.50558,0.174337 -1.168063,0.174337 z m 0.708973,-1.708509 q 0.546259,0 0.964669,-0.215017 0.418411,-0.220827 0.656672,-0.592748 0.238262,-0.37192 0.238262,-0.842632 v -0.947235 q -0.116225,0.07555 -0.319619,0.13947 -0.197583,0.05811 -0.447467,0.110414 -0.249884,0.04649 -0.499768,0.08717 -0.249884,0.03487 -0.453278,0.06392 -0.435845,0.06392 -0.761275,0.203394 -0.32543,0.13947 -0.505579,0.377731 -0.180149,0.232451 -0.180149,0.581126 0,0.505579 0.366109,0.772897 0.37192,0.261507 0.941423,0.261507 z" />
      <path
         id="path849"
         style="font-style:normal;font-variant:normal;font-weight:bold;font-stretch:normal;font-size:16.3645px;font-family:Inter;-inkscape-font-specification:'Inter Bold';fill:#666666;stroke-width:0.219167"
         d="m 108.0735,30.1568 q -1.35402,0 -2.34193,-0.575315 -0.9821,-0.581126 -1.51674,-1.615529 -0.53464,-1.040215 -0.53464,-2.411672 0,-1.383079 0.53464,-2.417483 0.53464,-1.040215 1.51674,-1.615529 0.98791,-0.581126 2.34193,-0.581126 1.35403,0 2.33613,0.581126 0.98791,0.575314 1.52255,1.615529 0.53463,1.034404 0.53463,2.417483 0,1.371457 -0.53463,2.411672 -0.53464,1.034403 -1.52255,1.615529 -0.9821,0.575315 -2.33613,0.575315 z m 0.0116,-1.917715 q 0.61599,0 1.02859,-0.348676 0.4126,-0.354486 0.6218,-0.964668 0.21502,-0.610182 0.21502,-1.388891 0,-0.778708 -0.21502,-1.38889 -0.2092,-0.610182 -0.6218,-0.964669 -0.4126,-0.354487 -1.02859,-0.354487 -0.62181,0 -1.04603,0.354487 -0.41841,0.354487 -0.63343,0.964669 -0.2092,0.610182 -0.2092,1.38889 0,0.778709 0.2092,1.388891 0.21502,0.610182 0.63343,0.964668 0.42422,0.348676 1.04603,0.348676 z" />
    </g>
  </g>
</svg>
