<?xml version="1.0" encoding="UTF-8" standalone="no"?>
<svg
   xmlns:dc="http://purl.org/dc/elements/1.1/"
   xmlns:cc="http://creativecommons.org/ns#"
   xmlns:rdf="http://www.w3.org/1999/02/22-rdf-syntax-ns#"
   xmlns:svg="http://www.w3.org/2000/svg"
   xmlns="http://www.w3.org/2000/svg"
   xmlns:sodipodi="http://sodipodi.sourceforge.net/DTD/sodipodi-0.dtd"
   xmlns:inkscape="http://www.inkscape.org/namespaces/inkscape"
   width="93.847794mm"
   height="16.579317mm"
   viewBox="0 0 93.847794 16.579317"
   version="1.1"
   id="svg1006"
   inkscape:version="1.0 (4035a4fb49, 2020-05-01)"
   sodipodi:docname="fullblack.svg">
  <defs
     id="defs1000" />
  <sodipodi:namedview
     id="base"
     pagecolor="#ffffff"
     bordercolor="#666666"
     borderopacity="1.0"
     inkscape:pageopacity="0.0"
     inkscape:pageshadow="2"
     inkscape:zoom="1.4"
     inkscape:cx="198.87154"
     inkscape:cy="177.28523"
     inkscape:document-units="mm"
     inkscape:current-layer="layer1"
     inkscape:document-rotation="0"
     showgrid="false"
     fit-margin-top="0"
     fit-margin-left="0"
     fit-margin-right="0"
     fit-margin-bottom="0"
     inkscape:window-width="1452"
     inkscape:window-height="1080"
     inkscape:window-x="327"
     inkscape:window-y="0"
     inkscape:window-maximized="0" />
  <metadata
     id="metadata1003">
    <rdf:RDF>
      <cc:Work
         rdf:about="">
        <dc:format>image/svg+xml</dc:format>
        <dc:type
           rdf:resource="http://purl.org/dc/dcmitype/StillImage" />
        <dc:title />
      </cc:Work>
    </rdf:RDF>
  </metadata>
  <g
     inkscape:label="Calque 1"
     inkscape:groupmode="layer"
     id="layer1"
     transform="translate(-0.53101503,-0.12031182)">
    <path
       inkscape:export-ydpi="96"
       inkscape:export-xdpi="96"
       inkscape:export-filename="D:\Projects\Kolumbao\old\kolumbao.github.io\img\logo\fullblack.png"
       id="path4715"
       d="m 10.944171,16.680824 c -0.07617,-0.0049 -0.325292,-0.02823 -0.553585,-0.05195 C 7.6908645,16.348379 5.1067653,15.01046 3.3042773,12.959935 1.7663453,11.210367 0.84342533,9.1207375 0.58203133,6.7963618 c -0.06511,-0.57898 -0.06748,-1.483862 -0.0046,-1.75191 0.202569,-0.863277 0.75940897,-1.562017 1.53347197,-1.924245 0.0971,-0.04543 0.177234,-0.09702 0.178081,-0.114629 8.28e-4,-0.0176 0.08551,-0.673997 0.188137,-1.458641 l 0.186595,-1.42662498 0.164929,0.512478 c 0.09071,0.281861 0.289642,0.89762598 0.442072,1.36836398 l 0.277143,0.855888 0.263164,0.05291 c 1.011339,0.20334 1.822182,0.949599 2.1224,1.953351 0.08825,0.295069 0.108722,0.726955 0.07454,1.57294 -0.04234,1.0481937 0.02517,1.9452027 0.215196,2.8589517 0.62096,2.9859635 2.4812006,5.6106665 5.1034637,7.2007225 l 0.335955,0.203712 -0.289965,-0.005 c -0.15948,-0.0027 -0.352292,-0.009 -0.428471,-0.01382 z"
       style="fill:#000000;fill-opacity:1;stroke-width:0.0277016"
       inkscape:connector-curvature="0" />
    <path
       inkscape:export-ydpi="96"
       inkscape:export-xdpi="96"
       inkscape:export-filename="D:\Projects\Kolumbao\old\kolumbao.github.io\img\logo\fullblack.png"
       id="path4713"
       d="m 1.7391333,16.180229 c -0.643641,-1.264177 -1.01324497,-2.523223 -1.17303997,-3.995934 -0.03915,-0.360769 -0.04817,-1.660242 -0.01354,-1.950705 l 0.02285,-0.191663 0.108893,0.260917 c 0.41178197,0.986667 1.02183997,1.97957 1.74655797,2.842619 l 0.213944,0.25478 -0.107153,0.318951 c -0.276175,0.822054 -0.527016,2.124953 -0.527145,2.73805 -1.8e-5,0.08761 -0.0111,0.159283 -0.02463,0.159283 -0.01353,0 -0.124553,-0.196335 -0.246726,-0.436298 z"
       style="fill:#000000;fill-opacity:1;stroke-width:0.0277016"
       inkscape:connector-curvature="0" />
    <path
       inkscape:export-ydpi="96"
       inkscape:export-xdpi="96"
       inkscape:export-filename="D:\Projects\Kolumbao\old\kolumbao.github.io\img\logo\fullblack.png"
       id="path4703"
       d="M 7.2522753,10.432179 C 6.9380143,9.6015635 6.7435733,8.8447895 6.6216573,7.9777665 l -0.04812,-0.342177 0.114375,-0.214659 c 0.155333,-0.291528 0.39588,-0.8979247 0.499293,-1.2586717 0.186669,-0.651175 0.262728,-1.22015 0.261468,-1.955981 -0.0023,-1.373761 -0.378008,-2.640027 -1.117132,-3.76565098 -0.09291,-0.141487 -0.164224,-0.261944 -0.158487,-0.267682 0.02144,-0.02144 0.471084,0.306528 0.759902,0.554262 1.3296082,1.14047298 2.1490773,2.66358998 2.3785433,4.42091998 0.06489,0.496945 0.04351,1.512689 -0.0419,1.9909487 -0.235749,1.320027 -0.7944177,2.472912 -1.6903961,3.4883415 -0.08338,0.09449 -0.1597992,0.171806 -0.1698272,0.171806 -0.01003,0 -0.08072,-0.165171 -0.157104,-0.367044 z"
       style="fill:#000000;fill-opacity:1;stroke-width:0.0277016"
       inkscape:connector-curvature="0" />
    <g
       style="font-style:normal;font-variant:normal;font-weight:bold;font-stretch:normal;font-size:16.3645px;line-height:1.35;font-family:Inter;-inkscape-font-specification:'Inter Bold';fill:#000000;fill-opacity:1;stroke:none;stroke-width:0.219167"
       id="text835"
       aria-label="Kolumbao
">
      <path
         id="path836"
         style="font-style:normal;font-variant:normal;font-weight:bold;font-stretch:normal;font-size:16.3645px;font-family:Inter;-inkscape-font-specification:'Inter Bold';stroke-width:0.219167"
         d="M 15.906498,14.270634 V 2.3691791 h 2.516274 v 5.2475652 h 0.156904 l 4.282897,-5.2475652 h 3.016042 L 21.46206,7.6981019 25.930916,14.270634 H 22.920685 L 19.66057,9.3775552 18.422772,10.888482 v 3.382152 z" />
      <path
         id="path838"
         style="font-style:normal;font-variant:normal;font-weight:bold;font-stretch:normal;font-size:16.3645px;font-family:Inter;-inkscape-font-specification:'Inter Bold';stroke-width:0.219167"
         d="m 30.536338,14.444971 q -1.354023,0 -2.341937,-0.575314 -0.982103,-0.581126 -1.516738,-1.61553 -0.534636,-1.040215 -0.534636,-2.4116712 0,-1.3830792 0.534636,-2.417483 0.534635,-1.040215 1.516738,-1.6155295 0.987914,-0.5811257 2.341937,-0.5811257 1.354022,0 2.336125,0.5811257 0.987914,0.5753145 1.522549,1.6155295 0.534636,1.0344038 0.534636,2.417483 0,1.3714562 -0.534636,2.4116712 -0.534635,1.034404 -1.522549,1.61553 -0.982103,0.575314 -2.336125,0.575314 z m 0.01162,-1.917714 q 0.615993,0 1.028593,-0.348676 0.412599,-0.354487 0.621804,-0.964669 0.215017,-0.610182 0.215017,-1.38889 0,-0.7787085 -0.215017,-1.3888904 -0.209205,-0.610182 -0.621804,-0.9646687 -0.4126,-0.3544867 -1.028593,-0.3544867 -0.621804,0 -1.046026,0.3544867 -0.418411,0.3544867 -0.633427,0.9646687 -0.209206,0.6101819 -0.209206,1.3888904 0,0.778708 0.209206,1.38889 0.215016,0.610182 0.633427,0.964669 0.424222,0.348676 1.046026,0.348676 z" />
      <path
         id="path840"
         style="font-style:normal;font-variant:normal;font-weight:bold;font-stretch:normal;font-size:16.3645px;font-family:Inter;-inkscape-font-specification:'Inter Bold';stroke-width:0.219167"
         d="M 39.014963,2.3691791 V 14.270634 H 36.539367 V 2.3691791 Z" />
      <path
         id="path842"
         style="font-style:normal;font-variant:normal;font-weight:bold;font-stretch:normal;font-size:16.3645px;font-family:Inter;-inkscape-font-specification:'Inter Bold';stroke-width:0.219167"
         d="M 46.706161,10.470072 V 5.3445428 h 2.475595 v 8.9260912 h -2.376804 v -1.621341 h -0.09298 q -0.302185,0.78452 -1.005348,1.261043 -0.69735,0.476523 -1.702698,0.476523 -0.894933,0 -1.574851,-0.406788 -0.679917,-0.406788 -1.06346,-1.15644 -0.377731,-0.749652 -0.383543,-1.795679 V 5.3445428 h 2.475596 v 5.2417542 q 0.0058,0.790331 0.424222,1.24942 0.41841,0.459089 1.121572,0.459089 0.447467,0 0.836821,-0.203394 0.389355,-0.209205 0.627616,-0.615993 0.244073,-0.406788 0.238262,-1.005347 z" />
      <path
         id="path844"
         style="font-style:normal;font-variant:normal;font-weight:bold;font-stretch:normal;font-size:16.3645px;font-family:Inter;-inkscape-font-specification:'Inter Bold';stroke-width:0.219167"
         d="M 51.145961,14.270634 V 5.3445428 h 2.359371 v 1.5748506 h 0.104602 q 0.278941,-0.7845197 0.929802,-1.2377977 0.65086,-0.4532781 1.557416,-0.4532781 0.918179,0 1.563229,0.4590893 0.645049,0.4532781 0.860066,1.2319865 h 0.09298 q 0.273129,-0.7670859 0.987913,-1.2261752 0.720596,-0.4649006 1.702699,-0.4649006 1.24942,0 2.028129,0.7961422 0.784519,0.790331 0.784519,2.2431453 V 14.270634 H 61.646903 V 8.7557507 q 0,-0.7438409 -0.395165,-1.1157614 -0.395166,-0.3719204 -0.987914,-0.3719204 -0.674106,0 -1.051838,0.430033 -0.377731,0.4242218 -0.377731,1.1215726 v 5.4509595 h -2.40005 V 8.7034494 q 0,-0.6566721 -0.377731,-1.0460263 -0.371921,-0.3893542 -0.982103,-0.3893542 -0.412599,0 -0.743841,0.2092052 -0.32543,0.203394 -0.517202,0.5753145 -0.191771,0.3661092 -0.191771,0.860066 v 5.3579794 z" />
      <path
         id="path846"
         style="font-style:normal;font-variant:normal;font-weight:bold;font-stretch:normal;font-size:16.3645px;font-family:Inter;-inkscape-font-specification:'Inter Bold';stroke-width:0.219167"
         d="M 66.118664,14.270634 V 2.3691791 h 2.475595 v 4.474668 h 0.07555 q 0.162715,-0.3602979 0.470711,-0.7322184 0.313808,-0.3777317 0.813576,-0.6276158 0.50558,-0.2556953 1.255232,-0.2556953 0.976291,0 1.80149,0.5113906 0.825198,0.5055794 1.319155,1.5283607 0.493957,1.01697 0.493957,2.5511418 0,1.4934933 -0.482334,2.5220853 -0.476524,1.022782 -1.301722,1.551606 -0.819387,0.523013 -1.836357,0.523013 -0.720596,0 -1.226176,-0.238261 -0.499768,-0.238262 -0.819387,-0.59856 -0.319619,-0.366109 -0.488145,-0.73803 h -0.110414 v 1.42957 z m 2.423294,-4.4630458 q 0,0.7961418 0.220828,1.3888908 0.220828,0.592748 0.639238,0.92399 0.418411,0.32543 1.01697,0.32543 0.604371,0 1.022781,-0.331242 0.418411,-0.337053 0.633427,-0.929801 0.220828,-0.598559 0.220828,-1.3772678 0,-0.7728972 -0.215016,-1.3598341 -0.215017,-0.586937 -0.633427,-0.9181787 -0.418411,-0.3312416 -1.028593,-0.3312416 -0.604371,0 -1.022781,0.3196191 -0.412599,0.3196192 -0.633427,0.9065561 -0.220828,0.586937 -0.220828,1.3830792 z" />
      <path
         id="path848"
         style="font-style:normal;font-variant:normal;font-weight:bold;font-stretch:normal;font-size:16.3645px;font-family:Inter;-inkscape-font-specification:'Inter Bold';stroke-width:0.219167"
         d="m 79.005127,14.43916 q -0.854255,0 -1.522549,-0.296374 -0.668295,-0.302185 -1.057649,-0.889122 -0.383543,-0.592749 -0.383543,-1.47606 0,-0.743841 0.273129,-1.24942 0.273129,-0.505579 0.743841,-0.8135759 0.470712,-0.3079966 1.069271,-0.4649006 0.604371,-0.1569039 1.266854,-0.2208277 0.778709,-0.081358 1.255232,-0.1510927 0.476523,-0.075546 0.69154,-0.2208278 0.215016,-0.1452814 0.215016,-0.430033 v -0.034868 q 0,-0.5520695 -0.348675,-0.8542548 -0.342865,-0.3021854 -0.976292,-0.3021854 -0.668294,0 -1.06346,0.2963741 -0.395165,0.2905629 -0.523013,0.7322184 L 76.355194,7.8782509 q 0.174338,-0.813576 0.685728,-1.4063243 0.511391,-0.5985594 1.319156,-0.9181786 0.813576,-0.3254304 1.882847,-0.3254304 0.743841,0 1.423758,0.1743377 0.685728,0.1743377 1.214553,0.5404469 0.534635,0.3661092 0.842632,0.9414237 0.307997,0.5695032 0.307997,1.3656454 v 6.0204627 h -2.347748 v -1.237798 h -0.06973 q -0.215017,0.41841 -0.575315,0.73803 -0.360298,0.313807 -0.865877,0.493956 -0.50558,0.174338 -1.168063,0.174338 z m 0.708974,-1.708509 q 0.546258,0 0.964668,-0.215017 0.418411,-0.220828 0.656672,-0.592748 0.238262,-0.371921 0.238262,-0.842632 v -0.947235 q -0.116225,0.07555 -0.319619,0.13947 -0.197583,0.05811 -0.447467,0.110414 -0.249884,0.04649 -0.499768,0.08717 -0.249884,0.03487 -0.453278,0.06392 -0.435845,0.06392 -0.761275,0.203394 -0.32543,0.139471 -0.505579,0.377732 -0.180149,0.23245 -0.180149,0.581126 0,0.505579 0.366109,0.772897 0.37192,0.261507 0.941424,0.261507 z" />
      <path
         id="path850"
         style="font-style:normal;font-variant:normal;font-weight:bold;font-stretch:normal;font-size:16.3645px;font-family:Inter;-inkscape-font-specification:'Inter Bold';stroke-width:0.219167"
         d="m 89.985496,14.444971 q -1.354023,0 -2.341936,-0.575314 -0.982103,-0.581126 -1.516739,-1.61553 -0.534635,-1.040215 -0.534635,-2.4116712 0,-1.3830792 0.534635,-2.417483 0.534636,-1.040215 1.516739,-1.6155295 0.987913,-0.5811257 2.341936,-0.5811257 1.354023,0 2.336126,0.5811257 0.987913,0.5753145 1.522549,1.6155295 0.534636,1.0344038 0.534636,2.417483 0,1.3714562 -0.534636,2.4116712 -0.534636,1.034404 -1.522549,1.61553 -0.982103,0.575314 -2.336126,0.575314 z m 0.01162,-1.917714 q 0.615993,0 1.028592,-0.348676 0.412599,-0.354487 0.621805,-0.964669 0.215016,-0.610182 0.215016,-1.38889 0,-0.7787085 -0.215016,-1.3888904 -0.209206,-0.610182 -0.621805,-0.9646687 -0.412599,-0.3544867 -1.028592,-0.3544867 -0.621805,0 -1.046027,0.3544867 -0.41841,0.3544867 -0.633427,0.9646687 -0.209205,0.6101819 -0.209205,1.3888904 0,0.778708 0.209205,1.38889 0.215017,0.610182 0.633427,0.964669 0.424222,0.348676 1.046027,0.348676 z" />
    </g>
  </g>
</svg>
