<?xml version="1.0" encoding="UTF-8" standalone="no"?>
<svg
   xmlns:dc="http://purl.org/dc/elements/1.1/"
   xmlns:cc="http://creativecommons.org/ns#"
   xmlns:rdf="http://www.w3.org/1999/02/22-rdf-syntax-ns#"
   xmlns:svg="http://www.w3.org/2000/svg"
   xmlns="http://www.w3.org/2000/svg"
   xmlns:xlink="http://www.w3.org/1999/xlink"
   xmlns:sodipodi="http://sodipodi.sourceforge.net/DTD/sodipodi-0.dtd"
   xmlns:inkscape="http://www.inkscape.org/namespaces/inkscape"
   width="69.905251mm"
   height="69.905251mm"
   viewBox="0 0 69.905252 69.905251"
   version="1.1"
   id="svg1836"
   inkscape:version="1.0 (4035a4fb49, 2020-05-01)"
   sodipodi:docname="icon.svg">
  <defs
     id="defs1830">
    <linearGradient
       inkscape:collect="always"
       xlink:href="#linearGradient5326"
       id="linearGradient5334"
       x1="39.43462"
       y1="5.46697"
       x2="154.03514"
       y2="216.60445"
       gradientUnits="userSpaceOnUse"
       gradientTransform="matrix(0.07853689,0,0,0.07853689,44.205874,68.386736)" />
    <linearGradient
       inkscape:collect="always"
       id="linearGradient5326">
      <stop
         style="stop-color:#947bd3;stop-opacity:1"
         offset="0"
         id="stop5322" />
      <stop
         id="stop5336"
         offset="0.51844591"
         style="stop-color:#f26ca7;stop-opacity:1" />
      <stop
         style="stop-color:#f26ca7;stop-opacity:1"
         offset="1"
         id="stop5324" />
    </linearGradient>
    <linearGradient
       inkscape:collect="always"
       xlink:href="#linearGradient5316"
       id="linearGradient5320"
       x1="84.169891"
       y1="6.6001964"
       x2="30.867004"
       y2="214.80072"
       gradientUnits="userSpaceOnUse"
       gradientTransform="matrix(0.07853689,0,0,0.07853689,44.205874,68.386736)" />
    <linearGradient
       inkscape:collect="always"
       id="linearGradient5316">
      <stop
         style="stop-color:#947bd3;stop-opacity:1"
         offset="0"
         id="stop5312" />
      <stop
         style="stop-color:#5e4ae3;stop-opacity:1"
         offset="1"
         id="stop5314" />
    </linearGradient>
  </defs>
  <sodipodi:namedview
     id="base"
     pagecolor="#ffffff"
     bordercolor="#666666"
     borderopacity="1.0"
     inkscape:pageopacity="0.0"
     inkscape:pageshadow="2"
     inkscape:zoom="2.8"
     inkscape:cx="83.796671"
     inkscape:cy="195.55129"
     inkscape:document-units="mm"
     inkscape:current-layer="layer1"
     inkscape:document-rotation="0"
     showgrid="false"
     fit-margin-top="0"
     fit-margin-left="0"
     fit-margin-right="0"
     fit-margin-bottom="0"
     inkscape:window-width="1452"
     inkscape:window-height="1080"
     inkscape:window-x="144"
     inkscape:window-y="0"
     inkscape:window-maximized="0" />
  <metadata
     id="metadata1833">
    <rdf:RDF>
      <cc:Work
         rdf:about="">
        <dc:format>image/svg+xml</dc:format>
        <dc:type
           rdf:resource="http://purl.org/dc/dcmitype/StillImage" />
        <dc:title></dc:title>
      </cc:Work>
    </rdf:RDF>
  </metadata>
  <g
     inkscape:label="Calque 1"
     inkscape:groupmode="layer"
     id="layer1"
     transform="translate(-59.793376,-45.009899)">
    <g
       transform="matrix(3.2616977,0,0,3.2616977,-70.739116,-171.53168)"
       id="g861">
      <path
         id="path4715-7"
         d="m 55.584753,85.379366 c -0.07619,-0.0049 -0.325345,-0.02823 -0.553678,-0.05195 -2.700169,-0.280543 -5.284698,-1.618684 -7.087484,-3.66955 -1.538188,-1.749859 -2.461261,-3.839836 -2.7227,-6.1646 -0.06512,-0.579076 -0.06749,-1.48411 -0.0046,-1.752202 0.202601,-0.863421 0.759534,-1.562278 1.533728,-1.924567 0.09711,-0.04544 0.177264,-0.09704 0.178111,-0.114648 9.11e-4,-0.01761 0.08552,-0.674109 0.188168,-1.458883 l 0.186625,-1.426863 0.164957,0.512562 c 0.09072,0.281909 0.289689,0.897776 0.442145,1.368593 l 0.277189,0.856031 0.263209,0.05292 c 1.011506,0.203374 1.822482,0.949757 2.122752,1.953677 0.08827,0.295117 0.108738,0.727075 0.07456,1.573202 -0.04235,1.048368 0.02518,1.945528 0.215231,2.859428 0.621064,2.98646 2.481613,5.611599 5.104312,7.201922 l 0.336012,0.203745 -0.290013,-0.005 c -0.159508,-0.0027 -0.352351,-0.009 -0.428544,-0.01383 z"
         style="fill:url(#linearGradient5334);fill-opacity:1;stroke-width:0.0277061"
         inkscape:connector-curvature="0"
         inkscape:export-filename="D:\Projects\Kolumbao\old\kolumbao.github.io\img\logo\blackname.png"
         inkscape:export-xdpi="96"
         inkscape:export-ydpi="96" />
      <path
         inkscape:connector-curvature="0"
         d="m 51.892243,79.129681 c -0.314312,-0.830754 -0.508785,-1.587654 -0.630722,-2.454822 l -0.04813,-0.342233 0.114394,-0.214695 c 0.155359,-0.291576 0.395948,-0.898075 0.499376,-1.258883 0.1867,-0.651282 0.262771,-1.220353 0.261512,-1.956307 -0.0023,-1.373989 -0.37807,-2.640466 -1.117318,-3.766278 -0.09292,-0.141511 -0.164251,-0.261988 -0.158513,-0.267726 0.02144,-0.02144 0.471164,0.306578 0.760028,0.554353 1.329831,1.140664 2.149434,2.664035 2.378938,4.421659 0.0649,0.497026 0.04352,1.51294 -0.04191,1.99128 -0.235787,1.320247 -0.79455,2.473324 -1.690676,3.488922 -0.08339,0.09451 -0.159827,0.171835 -0.169857,0.171835 -0.01004,0 -0.08074,-0.165198 -0.15713,-0.367105 z m -5.514058,5.749006 C 45.734437,83.614299 45.364772,82.355046 45.20495,80.882089 45.1658,80.521259 45.15677,79.221569 45.1914,78.93106 l 0.02285,-0.191697 0.108911,0.260961 c 0.411852,0.986832 1.02201,1.979899 1.746849,2.843094 l 0.213981,0.254821 -0.107174,0.319004 c -0.276219,0.82219 -0.527103,2.125307 -0.527232,2.738505 -1.7e-5,0.08762 -0.0111,0.159309 -0.02463,0.159309 -0.01353,0 -0.124573,-0.196366 -0.246767,-0.43637 z"
         style="fill:url(#linearGradient5320);fill-opacity:1;stroke-width:0.0277061"
         id="path4703-3"
         inkscape:export-filename="D:\Projects\Kolumbao\old\kolumbao.github.io\img\logo\blackname.png"
         inkscape:export-xdpi="96"
         inkscape:export-ydpi="96" />
    </g>
  </g>
</svg>
