<?xml version="1.0" encoding="UTF-8" standalone="no"?>
<svg
   xmlns:dc="http://purl.org/dc/elements/1.1/"
   xmlns:cc="http://creativecommons.org/ns#"
   xmlns:rdf="http://www.w3.org/1999/02/22-rdf-syntax-ns#"
   xmlns:svg="http://www.w3.org/2000/svg"
   xmlns="http://www.w3.org/2000/svg"
   xmlns:xlink="http://www.w3.org/1999/xlink"
   xmlns:sodipodi="http://sodipodi.sourceforge.net/DTD/sodipodi-0.dtd"
   xmlns:inkscape="http://www.inkscape.org/namespaces/inkscape"
   sodipodi:docname="invertedicon.svg"
   inkscape:version="1.0 (4035a4fb49, 2020-05-01)"
   id="svg1006"
   version="1.1"
   viewBox="0 0 69.905251 69.905251"
   height="69.905251mm"
   width="69.905251mm">
  <defs
     id="defs1000">
    <linearGradient
       gradientTransform="matrix(0.8849099,0,0,0.8849099,-95.32205,-11.037481)"
       gradientUnits="userSpaceOnUse"
       y2="5.2023811"
       x2="205.99702"
       y1="84.199402"
       x1="127"
       id="linearGradient5405"
       xlink:href="#linearGradient5326"
       inkscape:collect="always" />
    <linearGradient
       id="linearGradient5326"
       inkscape:collect="always">
      <stop
         id="stop5322"
         offset="0"
         style="stop-color:#947bd3;stop-opacity:1" />
      <stop
         style="stop-color:#f26ca7;stop-opacity:1"
         offset="0.51844591"
         id="stop5336" />
      <stop
         id="stop5324"
         offset="1"
         style="stop-color:#f26ca7;stop-opacity:1" />
    </linearGradient>
  </defs>
  <sodipodi:namedview
     inkscape:window-maximized="0"
     inkscape:window-y="0"
     inkscape:window-x="327"
     inkscape:window-height="1080"
     inkscape:window-width="1452"
     fit-margin-bottom="0"
     fit-margin-right="0"
     fit-margin-left="0"
     fit-margin-top="0"
     showgrid="false"
     inkscape:document-rotation="0"
     inkscape:current-layer="layer1"
     inkscape:document-units="mm"
     inkscape:cy="202.05685"
     inkscape:cx="136.39401"
     inkscape:zoom="1.4"
     inkscape:pageshadow="2"
     inkscape:pageopacity="0.0"
     borderopacity="1.0"
     bordercolor="#666666"
     pagecolor="#ffffff"
     id="base" />
  <metadata
     id="metadata1003">
    <rdf:RDF>
      <cc:Work
         rdf:about="">
        <dc:format>image/svg+xml</dc:format>
        <dc:type
           rdf:resource="http://purl.org/dc/dcmitype/StillImage" />
        <dc:title></dc:title>
      </cc:Work>
    </rdf:RDF>
  </metadata>
  <g
     transform="translate(-17.061529,6.4338455)"
     id="layer1"
     inkscape:groupmode="layer"
     inkscape:label="Calque 1">
    <rect
       y="-6.4338455"
       x="17.061529"
       height="69.905251"
       width="69.905251"
       id="rect5389"
       style="fill:url(#linearGradient5405);fill-opacity:1;stroke:none;stroke-width:0.530947;stroke-miterlimit:4;stroke-dasharray:none;stroke-opacity:1"
       inkscape:export-filename="D:\Projects\Kolumbao\old\kolumbao.github.io\img\logo\invertedicon.png"
       inkscape:export-xdpi="96"
       inkscape:export-ydpi="96" />
    <path
       id="path4715-8"
       d="M 67.840574,55.524679 C 67.591834,55.508857 66.778433,55.432451 66.033002,55.35506 57.217892,54.439197 48.780343,50.07064 42.894863,43.375275 37.873232,37.662613 34.859722,30.83957 34.006222,23.250042 c -0.21261,-1.890469 -0.22032,-4.845084 -0.0151,-5.720318 0.66142,-2.818753 2.4796,-5.100274 5.00707,-6.283021 0.31703,-0.148294 0.57871,-0.316797 0.58147,-0.37429 0.003,-0.05742 0.27921,-2.200729 0.614301,-4.762726 l 0.609259,-4.658213 0.53854,1.673337 c 0.29618,0.92034 0.94573,2.930924 1.44345,4.467962 l 0.90492,2.794641 0.85928,0.172767 c 3.302211,0.663946 5.949762,3.100618 6.93004,6.378056 0.288161,0.963472 0.354989,2.373647 0.243401,5.135947 -0.1382,3.422554 0.0822,6.351471 0.702659,9.335021 2.02755,9.749745 8.101582,18.319893 16.663771,23.511722 l 1.09697,0.665165 -0.94679,-0.01627 c -0.520729,-0.009 -1.150321,-0.02924 -1.399061,-0.04506 z"
       style="fill:#ffffff;fill-opacity:1;stroke-width:0.0904505"
       inkscape:connector-curvature="0"
       inkscape:export-filename="D:\Projects\Kolumbao\old\kolumbao.github.io\img\logo\invertedicon.png"
       inkscape:export-xdpi="96"
       inkscape:export-ydpi="96" />
    <path
       inkscape:connector-curvature="0"
       d="M 55.785821,35.121669 C 54.759704,32.409552 54.124812,29.93855 53.726733,27.107546 l -0.157101,-1.117267 0.37347,-0.700897 c 0.507179,-0.951897 1.2926,-2.931904 1.630269,-4.109813 0.609521,-2.126204 0.857862,-3.984019 0.853742,-6.386645 -0.007,-4.48558 -1.234271,-8.620198 -3.647641,-12.295573 -0.30335,-0.46197 -0.53622,-0.855295 -0.517491,-0.874027 0.0699,-0.06993 1.538171,1.000876 2.481231,1.809768 4.341411,3.723858 7.017131,8.697133 7.766391,14.435145 0.211879,1.622625 0.142111,4.939216 -0.136839,6.500834 -0.769771,4.310131 -2.59393,8.074525 -5.519463,11.390093 -0.272229,0.308538 -0.521769,0.560969 -0.554529,0.560969 -0.0328,0 -0.263578,-0.539313 -0.512959,-1.198464 z M 37.784372,53.89015 c -2.10161,-4.127791 -3.30844,-8.238808 -3.8302,-13.047483 -0.12779,-1.177986 -0.15729,-5.421006 -0.0441,-6.36942 l 0.0746,-0.625819 0.35556,0.85195 c 1.34454,3.221649 3.3365,6.463657 5.70284,9.281687 l 0.69856,0.831889 -0.34986,1.041448 c -0.90178,2.684158 -1.72082,6.938375 -1.72123,8.94025 -7e-5,0.286051 -0.0362,0.52008 -0.0803,0.52008 -0.0441,0 -0.406691,-0.641067 -0.805621,-1.424582 z"
       style="fill:#ffffff;fill-opacity:1;stroke-width:0.0904505"
       id="path4703-4"
       inkscape:export-filename="D:\Projects\Kolumbao\old\kolumbao.github.io\img\logo\invertedicon.png"
       inkscape:export-xdpi="96"
       inkscape:export-ydpi="96" />
  </g>
</svg>
